<svg id="Layer_1" data-name="Layer 1" xmlns="http://www.w3.org/2000/svg" viewBox="0 0 459.34 467.53"><defs><style>.cls-1{fill:#202020;}.cls-2,.cls-3{fill:#f9d812;}.cls-3{stroke:#f9d812;stroke-miterlimit:10;stroke-width:10px;}</style></defs><path class="cls-1" d="M408.38,273.87c-12.52-18.19-30.78-31.88-51.11-40.23C333,223.65,306,221.39,280,224.19c-24.33,2.62-48.27,9.47-69.88,21.07-39.89,21.41-73.59,63-74.44,109.92-.22,12.13,2.27,24.43,8.61,34.88,6.88,11.36,16.86,21,25.59,30.94l28.66,32.52c7.74,8.79,15.53,17.6,24.88,24.74a74.92,74.92,0,0,0,15.32,9.15c2.61,1.15,4.91-2.66,2.27-3.88-10.46-4.82-19.08-12.28-27-20.49-8.86-9.14-17.06-19-25.47-28.52l-27.18-30.89c-8.39-9.54-16-19.06-18.91-31.7-5.2-22.32,1.81-46.82,12.58-66.45a139.15,139.15,0,0,1,45.26-48.72c19.83-13.14,42.48-21.49,65.84-25.7,25-4.49,51.3-4.44,75.84,2.59,21.41,6.13,41.26,17.91,55.83,34.88,15.43,18,22.74,41.07,22.89,64.59.16,24.75-7.36,48.8-18.49,70.71a315.55,315.55,0,0,1-18.78,31.42c-6.28,9.45-12.65,19-16.42,29.8a56.22,56.22,0,0,0-3.1,16.14c-.17,3.75,5.71,3.75,5.84,0,.46-12.76,6.35-24.18,13-34.8s13.84-20.84,19.92-31.81c12.19-22,21.23-46,23.06-71.25C427.42,319.09,422.29,294.07,408.38,273.87Z" transform="translate(-51.53 -137)"/><path class="cls-2" d="M340.25,374.47c2.89-10.72,2.37-27.59-10.55-31.4-7.28-2.14-13.58.5-18.08,5.3A24.72,24.72,0,0,0,304.11,338c-7.56-6.12-19-7.79-26.75-1-4.19,3.66-5.41,8.86-5.85,14.19a91.71,91.71,0,0,0-.07,16,46.42,46.42,0,0,0,3.9,15.26,32.62,32.62,0,0,1-3.36.89c-.54-3.41-1.17-6.81-1.9-10.23-1.28-6-2.23-11.94-3.85-17.82-1.55-5.65-3.54-11.69-8.71-15-11.92-7.71-24.1,3.62-27.48,14.76-3.07,10.12-1.09,21.85,4.63,30.68A39.38,39.38,0,0,0,255,401.36c.06,5,0,10-.14,15-.68,20.67-3.47,41.18-6.44,61.62-.67,4.64,1.15,9.33,6.07,10.69,4.17,1.14,9.9-1.42,10.69-6.07,4.11-24.16,8.21-48.48,8.68-73,0-2,0-4.06,0-6.08a41.54,41.54,0,0,0,16.46-5.34,33.45,33.45,0,0,0,9.65,3.12,356.31,356.31,0,0,0,1.79,72c.29,2.15.58,4.31.88,6.46,0,0,.07.51.12.9s.1.85.11.89q.75,6.11,1.66,12.19c1.16,7.78,11.39,12.75,18.45,10.47,7.46-2.41,13.05-10.45,10.47-18.45a267.68,267.68,0,0,1-11.29-54.16,305.44,305.44,0,0,1-1.58-33.34A37.22,37.22,0,0,0,340.25,374.47Zm-89.43-19.26-.41,0C251.34,353.66,251.27,355.26,250.82,355.21Zm-3.71,7c0-.19.1-.45.19-.83a23.91,23.91,0,0,1,.7-2.51,20.63,20.63,0,0,1,.93-2l.09-.11c1,4.71,2.87,9.33,3.92,14.06a67.74,67.74,0,0,1,1.31,8.9,16.83,16.83,0,0,1-1.59-1.36A18.9,18.9,0,0,1,247.11,362.16Zm39.81-14c-.37.44-.06.17.21,0a11.08,11.08,0,0,0,1.27-.38l.72,0a2.66,2.66,0,0,1,1.74.29c1.05.36-1,.07.9.36l.16.1a11.12,11.12,0,0,1,1.32,2.93c.09.42.16.67.21.83a8.55,8.55,0,0,0,0,1c0,.73-.05,1.46-.09,2.2.12-2-.2,1.49-.35,2.87-.08.28-.41,1.94-.43,2a49.65,49.65,0,0,1-1.68,5.18l-.54,1.46c.12-.39-.82,1.86-.85,1.93s-.23.42-.34.64a55.51,55.51,0,0,1-2.36-13c-.17-2-.45-4-.42-6C286.39,348.74,286.32,348.9,286.92,348.2Z" transform="translate(-51.53 -137)"/><path class="cls-1" d="M323.79,353.53c-9.77-5.44-11.17,12.33-11.74,17.42-.73,6.54-1.27,13.11-1.76,19.69a21.48,21.48,0,0,1-13.15,4.45,13.24,13.24,0,0,1-9-4,46.72,46.72,0,0,0,11.25-29.41c.05-8.14-3.25-23.45-14.33-21.74-10.82,1.67-12.27,13.94-11.81,22.79.47,9.1,2.32,19.22,7.28,27.15a26.73,26.73,0,0,1-13.11,6.74,248.44,248.44,0,0,0-4.57-42.63c-1.54-7.7-6.91-18.28-16.63-15.89-9.12,2.25-11.65,16.39-12.49,24.09-1.13,10.33,1.22,20.64,7.66,28.89,5.48,7,13.74,11.82,22.72,11.82a299,299,0,0,1-14.63,94.47c-.71,2.2,2.72,3.12,3.44.95a293.62,293.62,0,0,0,13.78-71.69c.56-7.91.84-15.92.81-23.95a31.51,31.51,0,0,0,16.89-7.83c6.76,6.71,16.46,7.09,25.08,2.9l.35-.18c-.26,3.8-.51,7.61-.78,11.41-1.67,24-4.06,47.84.09,71.72a67.55,67.55,0,0,0,4.93,16.08c2,4.53,9,.6,6.74-3.94a75.51,75.51,0,0,1-7.53-26.2,192,192,0,0,1-.28-27.76q1-22.45,2.37-44.9a36.5,36.5,0,0,0,11.24-16.36,33.11,33.11,0,0,0,1.8-13.24C328.09,360.55,327.46,355.57,323.79,353.53Zm-79.74,33.71c-5.81-7.12-7.47-16.79-6.56-25.74.71-7,4.34-25.25,15.1-19.13,4.08,2.33,5.69,7,6.66,11.3,1.11,5,1.8,10.15,2.47,15.23q1.84,14,2.26,28C256.25,397.22,248.87,393.15,244.05,387.24Zm40.21-1.43a45.19,45.19,0,0,1-3.56-8.64,57,57,0,0,1-2.5-13.82c-.23-4.66-.44-10.3,2.1-14.43s7.6-4.68,10.05-.12c2.26,4.18,2.77,9.43,2.58,14.09A40.56,40.56,0,0,1,284.26,385.81Zm33.31-2.69a28.5,28.5,0,0,1-1.72,2.29l.33-5.53a147.53,147.53,0,0,1,1.46-15.13,13.52,13.52,0,0,1,1.48-5.1c2-3.32,3.28.32,3.58,2.65A30.52,30.52,0,0,1,317.57,383.12Z" transform="translate(-51.53 -137)"/><path class="cls-3" d="M461.38,216l-26.75,26.88c-4.54,4.57,2.53,11.64,7.07,7.07l26.75-26.88C473,218.55,465.93,211.47,461.38,216Z" transform="translate(-51.53 -137)"/><path class="cls-3" d="M90.49,344.64a70.44,70.44,0,0,1-27.71-.48c-6.28-1.36-9,8.28-2.66,9.64a83.3,83.3,0,0,0,33,.48C99.47,353.12,96.79,343.48,90.49,344.64Z" transform="translate(-51.53 -137)"/><path class="cls-3" d="M182.92,221.57a495.87,495.87,0,0,0-48.36-29.51c-5.67-3-10.73,5.59-5,8.63a498.36,498.36,0,0,1,48.36,29.52C183.18,233.87,188.19,225.21,182.92,221.57Z" transform="translate(-51.53 -137)"/><path class="cls-3" d="M308.37,148.86A139.71,139.71,0,0,1,302,182.68c-2.68,8.32,5.93,15.61,8.64,7.23a168.14,168.14,0,0,0,7.72-41C319,139.68,309,139.74,308.37,148.86Z" transform="translate(-51.53 -137)"/><path class="cls-3" d="M502.54,398.71,467.71,385.9c-6.08-2.24-9,7.36-3,9.59l34.83,12.81C505.65,410.54,508.6,400.94,502.54,398.71Z" transform="translate(-51.53 -137)"/><path class="cls-1" d="M350.16,513.27c-3.07-.63-6.18.14-9.19.72-4.43.84-8.87,1.69-13.31,2.48a241.38,241.38,0,0,1-25.27,3.36c-18,1.26-36.36-.49-52.46-9.08-6.47-3.45-12.22,6.37-5.75,9.84a92.15,92.15,0,0,0,28,9.41,139.75,139.75,0,0,0-30.53,6.26c-2.81,1-5.52,4.26-4.22,7.43,2.67,6.53,8.11,7.25,14.54,7.19,8.23-.08,16.45-.18,24.68-.13,10.86.07,21.72.24,32.58.21-5.45,1.73-11.51,2.51-16.36,4a125.9,125.9,0,0,0-34.27,16.38c-4.91,3.39-4.68,11.61,1.73,13.26a182.23,182.23,0,0,0,22.81,4.3c3.8.47,7.61.66,11.36,1.38a46.78,46.78,0,0,0,11.8,1.23c11.41-.61,11.57-17.71,0-17.86a72.15,72.15,0,0,0-10.88,1,44.28,44.28,0,0,1-10.35-.32c-1-.1-2.06-.22-3.08-.35a136.83,136.83,0,0,1,20.55-8.81c10.69-3.59,21.63-7.34,28.18-17.15,2.4-3.6-.82-8-4.71-8.2-7-.26-13.95-.37-20.93-.41,11.11-.77,22.18-1.89,33-4.62,5.84-1.46,14.19-2.93,17.81-8.28S356.31,514.55,350.16,513.27Z" transform="translate(-51.53 -137)"/><path class="cls-1" d="M293.25,604.33a.1.1,0,0,0,0,.2A.1.1,0,0,0,293.25,604.33Z" transform="translate(-51.53 -137)"/></svg>