<svg id="Layer_1" data-name="Layer 1" xmlns="http://www.w3.org/2000/svg" viewBox="0 0 290.33 381.25"><defs><style>.cls-1{fill:#202020;}.cls-2{fill:#3c3c3b;}</style></defs><path class="cls-1" d="M350.16,513.27c-3.07-.63-6.18.14-9.19.72-4.43.84-8.87,1.69-13.31,2.48a241.38,241.38,0,0,1-25.27,3.36c-18,1.26-36.36-.49-52.46-9.08-6.47-3.45-12.22,6.37-5.75,9.84a92.15,92.15,0,0,0,28,9.41,139.75,139.75,0,0,0-30.53,6.26c-2.81,1-5.52,4.26-4.22,7.43,2.67,6.53,8.11,7.25,14.54,7.19,8.23-.08,16.45-.18,24.68-.13,10.86.07,21.72.24,32.58.21-5.45,1.73-11.51,2.51-16.36,4a125.9,125.9,0,0,0-34.27,16.38c-4.91,3.39-4.68,11.61,1.73,13.26a182.23,182.23,0,0,0,22.81,4.3c3.8.47,7.61.66,11.36,1.38a46.78,46.78,0,0,0,11.8,1.23c11.41-.61,11.57-17.71,0-17.86a72.15,72.15,0,0,0-10.88,1,44.28,44.28,0,0,1-10.35-.32c-1-.1-2.06-.22-3.08-.35a136.83,136.83,0,0,1,20.55-8.81c10.69-3.59,21.63-7.34,28.18-17.15,2.4-3.6-.82-8-4.71-8.2-7-.26-13.95-.37-20.93-.41,11.11-.77,22.18-1.89,33-4.62,5.84-1.46,14.19-2.93,17.81-8.28S356.31,514.55,350.16,513.27Z" transform="translate(-135.43 -223.28)"/><path class="cls-1" d="M293.25,604.33a.1.1,0,0,0,0,.2A.1.1,0,0,0,293.25,604.33Z" transform="translate(-135.43 -223.28)"/><path class="cls-2" d="M408.14,274.07c-12.52-18.18-30.78-31.87-51.11-40.23-24.3-10-51.31-12.24-77.26-9.45-24.33,2.63-48.27,9.47-69.88,21.07-39.89,21.41-73.59,63-74.44,109.93-.23,12.12,2.27,24.42,8.6,34.87,6.89,11.36,16.86,21,25.6,30.94l28.65,32.53c7.75,8.78,15.54,17.59,24.88,24.73a75.24,75.24,0,0,0,15.32,9.16c2.62,1.14,4.92-2.67,2.28-3.89-10.46-4.82-19.08-12.27-27-20.48-8.86-9.15-17.06-19-25.47-28.53q-13.59-15.45-27.17-30.89c-8.39-9.54-16-19.06-18.91-31.7-5.2-22.32,1.81-46.82,12.58-66.45A139.15,139.15,0,0,1,200,257c19.83-13.14,42.48-21.49,65.83-25.69,25-4.5,51.31-4.45,75.85,2.58,21.41,6.13,41.25,17.91,55.82,34.89,15.44,18,22.75,41.06,22.9,64.58.16,24.75-7.37,48.81-18.49,70.71a315.79,315.79,0,0,1-18.79,31.43c-6.27,9.44-12.64,19-16.41,29.79a56.29,56.29,0,0,0-3.1,16.14c-.17,3.75,5.7,3.76,5.84,0,.46-12.76,6.34-24.17,13-34.79s13.83-20.85,19.92-31.82c12.19-22,21.23-46,23.06-71.25C427.18,319.3,422,294.27,408.14,274.07Z" transform="translate(-135.43 -223.28)"/><path class="cls-2" d="M323.55,353.73c-9.77-5.44-11.18,12.33-11.74,17.42-.73,6.55-1.28,13.11-1.76,19.69a21.52,21.52,0,0,1-13.15,4.45,13.22,13.22,0,0,1-9-4.05,46.63,46.63,0,0,0,11.24-29.41c.06-8.13-3.25-23.45-14.32-21.74-10.83,1.67-12.27,14-11.82,22.8.47,9.1,2.32,19.21,7.29,27.15a26.63,26.63,0,0,1-13.11,6.73,248.22,248.22,0,0,0-4.57-42.62c-1.55-7.7-6.91-18.29-16.63-15.9-9.13,2.25-11.65,16.39-12.49,24.09-1.13,10.33,1.21,20.65,7.66,28.89,5.47,7,13.74,11.82,22.72,11.82a299,299,0,0,1-14.64,94.47c-.7,2.2,2.73,3.12,3.44,1a293.17,293.17,0,0,0,13.79-71.69c.56-7.91.84-15.92.8-23.94a31.63,31.63,0,0,0,16.9-7.84c6.76,6.72,16.46,7.09,25.07,2.91l.36-.19-.78,11.41c-1.67,24-4.07,47.84.09,71.72a66.65,66.65,0,0,0,4.93,16.08c2,4.53,9,.61,6.74-3.94a75.53,75.53,0,0,1-7.54-26.2,194.83,194.83,0,0,1-.28-27.76q1.06-22.45,2.38-44.9a36.5,36.5,0,0,0,11.24-16.36,33.29,33.29,0,0,0,1.8-13.24C327.85,360.75,327.21,355.77,323.55,353.73Zm-79.74,33.72c-5.82-7.13-7.47-16.8-6.56-25.75.71-7,4.34-25.25,15.09-19.13,4.09,2.33,5.7,7,6.67,11.3,1.11,5,1.8,10.15,2.46,15.23a278.74,278.74,0,0,1,2.26,28C256,397.42,248.62,393.35,243.81,387.45ZM284,386a45.14,45.14,0,0,1-3.55-8.64A57.44,57.44,0,0,1,278,363.56c-.22-4.67-.43-10.31,2.11-14.44s7.59-4.67,10.05-.12c2.26,4.18,2.77,9.43,2.58,14.1A40.47,40.47,0,0,1,284,386Zm33.32-2.69c-.53.78-1.11,1.55-1.72,2.29.11-1.84.21-3.68.32-5.52A147.47,147.47,0,0,1,317.4,365a13.69,13.69,0,0,1,1.47-5.1c2-3.32,3.28.32,3.59,2.65A30.62,30.62,0,0,1,317.33,383.32Z" transform="translate(-135.43 -223.28)"/></svg>