<svg id="Layer_1" data-name="Layer 1" xmlns="http://www.w3.org/2000/svg" viewBox="0 0 263.92 415.88"><path d="M107.26,100.12a19.8,19.8,0,0,0-5.65,13.7c0,4.5,1.47,10.56,6.08,12.24a3,3,0,0,0,3.78-2.88c-.08-3.1-2.12-5.62-2.31-8.8a12.18,12.18,0,0,1,3.27-9.09C115.63,101.85,110.53,96.72,107.26,100.12Z" transform="translate(-13.02 -71.68)"/><path d="M119.87,162.85c-3.68,1.69-.48,7,3.16,5.4a23.07,23.07,0,0,0,11.89-12.17c2-4.6,4.49-12.65.26-16.58a3.32,3.32,0,0,0-5.47,1.44c-1.3,4,1,8-.58,12.25A17.35,17.35,0,0,1,119.87,162.85Z" transform="translate(-13.02 -71.68)"/><path d="M232.12,92.62c-9.76.57-16.16,7.6-21.13,15.23-8.83-20.11-30-32.53-52.06-35.35-16.49-2.1-33.76,0-49.65,4.73-15.42,4.62-30.17,12.13-39.61,25.55-1.44,2,1.61,4.08,3.31,2.56C88.76,91.22,108.52,82.88,129.27,80c-4,23.79,10.8,44.67,31.34,55.43,10.36,5.44,22.48,9.06,34.23,7a33,33,0,0,0,9.33-3.09,31.29,31.29,0,0,1-2.32,4.86c-6.5,11-18.07,19.28-29.18,25.18-22.46,11.92-50.41,16.5-74.58,7.05-12.8-5-23.82-14.39-28.35-27.63-4.19-12.23-2.71-27.23,6.56-36.79a1.23,1.23,0,0,0-1.74-1.74C54.94,127.89,62,158.49,81,173.41c22.93,17.93,57.06,17.94,83.44,8.53,22.22-7.92,48-25.74,50.5-50.7,6.1.33,13.21-1.68,17.36-3.19,8.73-3.17,16.15-10.22,16.32-20C248.83,98.65,241.33,92.09,232.12,92.62Zm-25.85,37.23a11.88,11.88,0,0,1-1.07.93,26,26,0,0,1-13,5c-10.32,1.06-21.06-2.85-30-7.79-17.28-9.59-29.72-27.56-28.45-47.86a2.09,2.09,0,0,0-.07-.67c3.34-.34,6.7-.54,10.06-.6,24.8-.44,50.72,9.17,60,34a42.25,42.25,0,0,1,2.12,8,4.45,4.45,0,0,0-1,4.92,8.92,8.92,0,0,0,1.52,2.18C206.34,128.6,206.31,129.23,206.27,129.85Zm35.87-20.28c-1.23,7-7.36,10.87-13.79,12.6-4.6,1.24-9.14,2-13.37.79,0-.2,0-.39,0-.59a51.58,51.58,0,0,0-1.89-9c4.11-5.39,8.92-12.11,15.65-14.14C236.07,97.06,243.61,101.2,242.14,109.57Z" transform="translate(-13.02 -71.68)"/><path d="M97.52,134.59c-1.43-5-3.16-9.38-3.53-14.68a27.8,27.8,0,0,1,3-15.31c2.34-4.44-4.33-8.37-6.74-3.94-5.89,10.84-6.84,28.11,4.58,36C96.18,137.58,97.94,136.05,97.52,134.59Z" transform="translate(-13.02 -71.68)"/><path d="M238,182a3.71,3.71,0,0,0-6.24-2.59c-4.24,3.73-5.92,11-8.24,16.1q-4.18,9.17-8.62,18.19c-5,10.09-10.41,19.92-15.59,29.89-5.55-4.71-10.66-10.58-15.52-15.66q-2.06-8.53-4.1-17.06c-.7-2.92-5.1-1.68-4.47,1.23s1.23,5.72,1.85,8.58q-5.62-6.22-11.07-12.6c-2.79-3.27-7.3,1.42-4.67,4.67,5.59,6.92,11.37,13.66,17.24,20.35.52.6,1.06,1.19,1.61,1.79q4.65,21.15,9.54,42.27,3.72,16,7.52,31.95c2.61,11,6.43,22.63,6.78,33.95a4.69,4.69,0,0,0,2.33,4.06l1.24.63a3.3,3.3,0,0,0,4.38-1.14l.82-1.17a4.72,4.72,0,0,0,0-4.75c-4.83-9.85-6.8-21.65-9.43-32.24q-4.06-16.41-8-32.84t-8-33.17a108.61,108.61,0,0,1,9.47,11.07c2.11,2.93,6.44,3.37,8.46,0,6.89-11.49,12.68-23.73,18.37-35.85q4.08-8.69,7.92-17.48C233.75,194.88,238.29,187.77,238,182Z" transform="translate(-13.02 -71.68)"/><path d="M190.67,476.73c-8.4-2-17.5-10-18.46-18.78-1.2-10.9-.74-22.09-1.48-33a507.92,507.92,0,0,0-8.49-64.9c-.66-3.29-5.41-1.83-5,1.36a650.16,650.16,0,0,1,6.63,73.18c.33,11.07-.36,22.09,2.06,32.95,2.21,9.91,12.25,13,19.29,18.51C193,492.05,198.83,478.69,190.67,476.73Z" transform="translate(-13.02 -71.68)"/><path d="M185.53,345.43c-9.08,1.21-18.06,2.76-27.22,3.71s-18.18,1.76-27.28,2.48c-16.73,1.31-33.49,1.88-50.23,2.89,5.66-25,14-49.54,21.19-74.1,7.65-26.22,15.44-52.4,22.67-78.75a1.23,1.23,0,0,0-2.37-.65c-1.25,3.82-2.47,7.65-3.69,11.48a1.87,1.87,0,0,0-1.95.17q-18.08,11.76-35.76,24.13C69.21,245,58.17,254.7,46,262c-4.77,2.85.67,10,4.64,6,10.08-10.06,22.68-18.17,34-26.73q15.94-12,32.25-23.5c-6.5,20.44-12.75,41-19.08,61.45-8,26-15,52.78-24.91,78.13-.87,2.22,1.33,4.46,3.42,4.5,13,.22,26-.31,39-1.06a1.93,1.93,0,0,0-1.43,2.09q3.33,26.64,5.8,53.39,1.22,13.13,2.22,26.27c.65,8.51,1.75,17,.73,25.42-4.81,1-9.6,2.27-14.39,3.41-6.19,1.48-3.55,11.25,2.64,9.56,5.67-1.55,11.4-3,17-4.74a4.65,4.65,0,0,0,3.2-5.63c-2.83-9.13-3-18.52-3.8-28q-1.14-13.63-2.53-27.25c-1.79-17.71-3.94-35.39-6.32-53a1.85,1.85,0,0,0-1.49-1.57q7-.42,14.06-.89,13.65-.9,27.28-2.13c9.05-.82,18.24-1.26,27.22-2.23C192,354.79,191.87,344.58,185.53,345.43Z" transform="translate(-13.02 -71.68)"/><path d="M276.46,171.69c-2.26-5.78-11-5.28-15.87-4.66a40.58,40.58,0,0,0-20.38,8.83c-1.88,0-3.2,2.41-2.07,3.78a2.21,2.21,0,0,0,1.88,1c7.59,3,16.79,3,24.71,1.62C269.58,181.47,279.18,178.69,276.46,171.69Zm-9.25,6a38.54,38.54,0,0,1-9.32,1.32,45.38,45.38,0,0,1-12.65-1.93,35.21,35.21,0,0,1,9.46-4.67c3.68-1.16,12.1-3.48,15.65-1C274.54,174.36,270.34,176.82,267.21,177.69Z" transform="translate(-13.02 -71.68)"/><path d="M39.54,264.91a2.33,2.33,0,0,0-1.38-1,28.77,28.77,0,0,0-24,3.86,2.38,2.38,0,0,0,0,4.06c8.45,4.84,16.46-2,25.05-2.44A2.27,2.27,0,0,0,39.54,264.91Zm-13,3.12a21,21,0,0,1-4,.92A24.13,24.13,0,0,1,26.56,268Z" transform="translate(-13.02 -71.68)"/><path d="M132.71,229.24a.05.05,0,0,0,0,.1A.05.05,0,1,0,132.71,229.24Z" transform="translate(-13.02 -71.68)"/><path d="M134.88,221a2.73,2.73,0,0,0-3.65,1c-.57.86-1.14,1.72-1.72,2.57a2.71,2.71,0,0,0,1,3.66,2.73,2.73,0,0,0,3.66-1l1.71-2.57A2.69,2.69,0,0,0,134.88,221Z" transform="translate(-13.02 -71.68)"/><path d="M121.49,249.43a3.16,3.16,0,0,0-3.81,2.16l-.51,2.12c-.08.35-.18.7-.25,1.06a3.56,3.56,0,0,0,.4,2.53,2.89,2.89,0,0,0,3.94,1,3.53,3.53,0,0,0,1.56-1.94c.11-.34.19-.7.28-1l.55-2.1A3.15,3.15,0,0,0,121.49,249.43Z" transform="translate(-13.02 -71.68)"/><path d="M111.78,285.26a2.73,2.73,0,0,0-3.66,1l-1.71,3.12a2.84,2.84,0,0,0,1,3.84c1.23.65,3.2.43,3.85-1l1.47-3.25A2.76,2.76,0,0,0,111.78,285.26Z" transform="translate(-13.02 -71.68)"/></svg>