<svg id="visual" viewBox="0 0 900 450" width="900" height="450" xmlns="http://www.w3.org/2000/svg" xmlns:xlink="http://www.w3.org/1999/xlink" version="1.1"><path d="M0 169L21.5 155.8C43 142.7 86 116.3 128.8 110.2C171.7 104 214.3 118 257.2 125.3C300 132.7 343 133.3 385.8 134.2C428.7 135 471.3 136 514.2 132.2C557 128.3 600 119.7 642.8 113.5C685.7 107.3 728.3 103.7 771.2 102.7C814 101.7 857 103.3 878.5 104.2L900 105L900 0L878.5 0C857 0 814 0 771.2 0C728.3 0 685.7 0 642.8 0C600 0 557 0 514.2 0C471.3 0 428.7 0 385.8 0C343 0 300 0 257.2 0C214.3 0 171.7 0 128.8 0C86 0 43 0 21.5 0L0 0Z" fill="#ffd900"></path><path d="M0 72L21.5 81.7C43 91.3 86 110.7 128.8 115.5C171.7 120.3 214.3 110.7 257.2 102.5C300 94.3 343 87.7 385.8 92.2C428.7 96.7 471.3 112.3 514.2 111C557 109.7 600 91.3 642.8 84.2C685.7 77 728.3 81 771.2 87.7C814 94.3 857 103.7 878.5 108.3L900 113L900 0L878.5 0C857 0 814 0 771.2 0C728.3 0 685.7 0 642.8 0C600 0 557 0 514.2 0C471.3 0 428.7 0 385.8 0C343 0 300 0 257.2 0C214.3 0 171.7 0 128.8 0C86 0 43 0 21.5 0L0 0Z" fill="#ff9d21"></path><path d="M0 76L21.5 76.3C43 76.7 86 77.3 128.8 75.2C171.7 73 214.3 68 257.2 72.2C300 76.3 343 89.7 385.8 93C428.7 96.3 471.3 89.7 514.2 83.7C557 77.7 600 72.3 642.8 67C685.7 61.7 728.3 56.3 771.2 55.5C814 54.7 857 58.3 878.5 60.2L900 62L900 0L878.5 0C857 0 814 0 771.2 0C728.3 0 685.7 0 642.8 0C600 0 557 0 514.2 0C471.3 0 428.7 0 385.8 0C343 0 300 0 257.2 0C214.3 0 171.7 0 128.8 0C86 0 43 0 21.5 0L0 0Z" fill="#ff6343"></path><path d="M0 54L21.5 51.2C43 48.3 86 42.7 128.8 42.2C171.7 41.7 214.3 46.3 257.2 45.3C300 44.3 343 37.7 385.8 37C428.7 36.3 471.3 41.7 514.2 44.5C557 47.3 600 47.7 642.8 44.8C685.7 42 728.3 36 771.2 34C814 32 857 34 878.5 35L900 36L900 0L878.5 0C857 0 814 0 771.2 0C728.3 0 685.7 0 642.8 0C600 0 557 0 514.2 0C471.3 0 428.7 0 385.8 0C343 0 300 0 257.2 0C214.3 0 171.7 0 128.8 0C86 0 43 0 21.5 0L0 0Z" fill="#ff156f"></path></svg>