<svg xmlns="http://www.w3.org/2000/svg" viewBox="0 0 394.15 373.37"><defs><style>.cls-1{isolation:isolate;}.cls-2{fill:#c7eae5;}.cls-3{fill:#3f6888;}.cls-12,.cls-16,.cls-18,.cls-25,.cls-4{fill:none;}.cls-11,.cls-12,.cls-4,.cls-6{stroke:#000;}.cls-11,.cls-12,.cls-16,.cls-18,.cls-25,.cls-4,.cls-6{stroke-linecap:round;stroke-linejoin:round;}.cls-5,.cls-6{fill:#f9ff00;}.cls-27,.cls-7{fill:#c8e9ed;}.cls-8{fill:#8d8d8d;}.cls-9{fill:#d9a086;}.cls-10{fill:#fff;}.cls-11{fill:#a8a300;}.cls-12{opacity:0.01;}.cls-13{fill:#7a6d4c;}.cls-14{fill:#e9c6aa;}.cls-15{fill:#9b8b5f;}.cls-16{stroke:#d56b96;}.cls-17{fill:#79ccb6;}.cls-18{stroke:#66a0af;}.cls-19{fill:#c1c1c1;}.cls-20{fill:#e39033;}.cls-21{fill:#c9a273;}.cls-22{fill:#373537;}.cls-23{fill:#66ada8;}.cls-24{fill:#f3e0d1;}.cls-25{stroke:#3f6888;}.cls-26{fill:#d04060;}.cls-27{mix-blend-mode:screen;opacity:0.3;}</style></defs><g class="cls-1"><g id="OBJECTS"><path class="cls-2" d="M268.78,162.62,269,162c10.39-26.39,20.53-49.91,31-71.91L301,88.2,304.81,90,303.89,92c-10.36,21.74-20.4,45-30.67,71l17.6,83.12-4.17.88Z" transform="translate(-252.67 -70.45)"/><path class="cls-3" d="M270.15,155.34a6.63,6.63,0,0,1,1.52-2.19c.36.38.72.76,1.09,1.13a3.71,3.71,0,0,1,1.57-.88c-.26-.51-.49-1-.7-1.53a6.36,6.36,0,0,1,2.6-.52c0,.6,0,1.2,0,1.8a3.55,3.55,0,0,1,1.74.49c.21-.64.44-1.24.69-1.82a6.38,6.38,0,0,1,2.29,1.54l-1.48,1.41a3.74,3.74,0,0,1,.88,1.58,16.91,16.91,0,0,1,2-.87,6.51,6.51,0,0,1,.45,2.78l-2.17,0a3.55,3.55,0,0,1-.49,1.74,17.47,17.47,0,0,1,2,.79,6.62,6.62,0,0,1-1.81,2.27,10.8,10.8,0,0,0-1.44-1.24,4.68,4.68,0,0,0-1.14.58l.51,1.78a6.44,6.44,0,0,1-2.87.27,10.68,10.68,0,0,0-.14-1.65,5.42,5.42,0,0,0-1.22-.4l-.77,1.39A6.43,6.43,0,0,1,271,162a8.88,8.88,0,0,0,.9-1.08,4.68,4.68,0,0,0-.58-1.14l-1.34.38a6.51,6.51,0,0,1-.36-2.75,8.92,8.92,0,0,0,1.3-.14,5.19,5.19,0,0,0,.4-1.21Z" transform="translate(-252.67 -70.45)"/><path class="cls-4" d="M277.33,156.47a2.31,2.31,0,0,1,.54,2,1.75,1.75,0,0,1-1.55,1.33,1.83,1.83,0,0,1-1.56-.89,2,2,0,0,1,.1-2.25A1.66,1.66,0,0,1,277.33,156.47Z" transform="translate(-252.67 -70.45)"/><path class="cls-4" d="M275.24,154a4.5,4.5,0,0,0-2.38,6.65" transform="translate(-252.67 -70.45)"/><path class="cls-4" d="M268.47,163.22c6.38,28.23,11.8,55.54,18.18,83.77" transform="translate(-252.67 -70.45)"/><path class="cls-4" d="M304.47,90.85q-10.35,20.66-19.21,42" transform="translate(-252.67 -70.45)"/><path class="cls-5" d="M310.14,138.57c-5.6-12-11.27-24.21-13.21-37.31a25.79,25.79,0,0,1,0-9.83,11.59,11.59,0,0,1,5.67-7.74c4.53-2.26,10-.31,14.31,2.4,6.79,4.3,12.27,10.43,16.74,17.12s8,14,11.71,21.37C334,129.16,322.54,133.75,310.14,138.57Z" transform="translate(-252.67 -70.45)"/><path class="cls-5" d="M303.43,88.57,297.59,77a13.11,13.11,0,0,1,4.11-2.23A141.05,141.05,0,0,1,307.87,88,19.64,19.64,0,0,1,303.43,88.57Z" transform="translate(-252.67 -70.45)"/><path class="cls-6" d="M309.42,83.28a23.57,23.57,0,0,1,11.37,5.4,54.6,54.6,0,0,1,8.55,9.41,138.82,138.82,0,0,1,15.79,26.36L333,129.59" transform="translate(-252.67 -70.45)"/><path class="cls-6" d="M300.85,92.2a41.56,41.56,0,0,0,3.6,21.93" transform="translate(-252.67 -70.45)"/><path class="cls-6" d="M305.16,116.22l2.56,6.13" transform="translate(-252.67 -70.45)"/><path class="cls-7" d="M368.53,293.82l-.33,67.91a161.92,161.92,0,0,1-27.15,20.09c.33,7.34.28,14.09.23,20.84,1.36-.07,2.91-.08,4.46-.08.13-4.66.31-9.72.49-14.77,8.41-6.57,16.64-13,24.6-19.83-.06,10.86.18,21.87.42,32.88a16.87,16.87,0,0,0,6,.26c0-10.71-.25-22.39-1.15-34,8.74,6.56,17.13,13.05,25.16,19.94a105.94,105.94,0,0,1,1.43,13.26,19.76,19.76,0,0,0,4.74,0c.19-5.63.12-11.16.06-16.7-10.38-6.8-20.3-13.14-30.23-19.49,1.51-23.68,1.93-47.94,1.12-72.21A26.12,26.12,0,0,0,368.53,293.82Z" transform="translate(-252.67 -70.45)"/><path class="cls-4" d="M402.67,399.75A81.57,81.57,0,0,0,401,387.11q-9.18-8.62-19.15-16.35" transform="translate(-252.67 -70.45)"/><path class="cls-4" d="M370.7,368.3a184,184,0,0,1-.13,31.93" transform="translate(-252.67 -70.45)"/><path class="cls-4" d="M357.54,379c-4,2.92-8,5.83-11.81,8.41q-.09,7.72-.16,15.47" transform="translate(-252.67 -70.45)"/><path class="cls-4" d="M368.19,296.93l.34,57.85" transform="translate(-252.67 -70.45)"/><path class="cls-8" d="M369.53,333.78a6.61,6.61,0,1,1-7.73,1.33A6.77,6.77,0,0,1,369.53,333.78Z" transform="translate(-252.67 -70.45)"/><path class="cls-4" d="M367.26,333.19a6.54,6.54,0,1,1-3.5,12.48" transform="translate(-252.67 -70.45)"/><path class="cls-4" d="M366.85,335.23a3.73,3.73,0,0,0-3.75,3.06" transform="translate(-252.67 -70.45)"/><rect class="cls-3" x="74.74" y="208.73" width="89.12" height="21.04" rx="6.94"/><path class="cls-4" d="M416,287.82a20.91,20.91,0,0,1,.24,5.69,7.07,7.07,0,0,1-2.69,4.85,10.12,10.12,0,0,1-4.78,1.37,139.78,139.78,0,0,1-27.44.24" transform="translate(-252.67 -70.45)"/><path class="cls-4" d="M361.41,296.6l-25.66-.22c-2,0-4.42-.35-5.09-2.21" transform="translate(-252.67 -70.45)"/><path class="cls-4" d="M331.32,285.36l-.39,4.53" transform="translate(-252.67 -70.45)"/><path class="cls-8" d="M350.14,408.28a9.27,9.27,0,0,1-12.88,2.51,7.33,7.33,0,0,1-2.93-5,10,10,0,0,1,3.21-9.05,9,9,0,0,1,9.4-1.39C350,396.78,354,403,350.14,408.28Z" transform="translate(-252.67 -70.45)"/><path class="cls-4" d="M344.49,397.35a7,7,0,0,1,3.63,9.4" transform="translate(-252.67 -70.45)"/><path class="cls-4" d="M346.68,407.64a3.59,3.59,0,0,1-3.32,1.87" transform="translate(-252.67 -70.45)"/><path class="cls-8" d="M409.17,395.34a9.26,9.26,0,0,1,6.2,11.57,7.32,7.32,0,0,1-3.88,4.26,10,10,0,0,1-9.59-.39,9,9,0,0,1-4.1-8.57C398.23,398.9,403,393.25,409.17,395.34Z" transform="translate(-252.67 -70.45)"/><path class="cls-4" d="M406.43,396.84a7,7,0,0,1,5.73,11" transform="translate(-252.67 -70.45)"/><path class="cls-4" d="M410.6,408.67a3.72,3.72,0,0,1-3.33,1.47" transform="translate(-252.67 -70.45)"/><path class="cls-8" d="M373,412.07a9.28,9.28,0,0,1-8.31-10.17,7.37,7.37,0,0,1,3-4.93,10,10,0,0,1,9.49-1.44,9,9,0,0,1,5.67,7.62C383.09,406.48,379.52,412.93,373,412.07Z" transform="translate(-252.67 -70.45)"/><path class="cls-4" d="M376.3,397.54a7.38,7.38,0,0,1,3,11.14" transform="translate(-252.67 -70.45)"/><path class="cls-9" d="M458,351.82c7.89,14.54,16.42,28.07,24.32,42.6a39.68,39.68,0,0,0,13.16-10.14c-5.49-11.54-11-29.14-18.31-42C472.51,345,462.85,350.68,458,351.82Z" transform="translate(-252.67 -70.45)"/><path class="cls-10" d="M482.78,396.89l-4.3-7a58.87,58.87,0,0,0,15.85-10.11c1.13,2.4,5.73,11.4,7.1,13.57C498.74,394.84,485.51,396.14,482.78,396.89Z" transform="translate(-252.67 -70.45)"/><path class="cls-11" d="M480.49,407.4c-1.39-6.26-1.53-11.43-1.8-17.85a7,7,0,0,0,6.2,1.22c1.12-.34,2.13-1,3.25-1.32a6,6,0,0,1,6.65,2.94,16.86,16.86,0,0,1-1.24-5.28,5.69,5.69,0,0,1,2.13-4.79,8.43,8.43,0,0,1,3.88-1.14c1.25-.15,2.7-.23,3.56.69,2.16,2.31-.61,5.32-.92,6.83a93.77,93.77,0,0,1,28.57,7.92c11,5,7.73,8.12,6.37,8.63C536.3,405.57,481.69,407.23,480.49,407.4Z" transform="translate(-252.67 -70.45)"/><path class="cls-4" d="M502.34,389.17a14,14,0,0,1,7.17,5.8,4,4,0,0,1,.69,1.84,1.63,1.63,0,0,1-.92,1.62c-.92.35-1.85-.45-2.47-1.22a23.07,23.07,0,0,1-4.1-8,10.5,10.5,0,0,1,0,6.49,3.21,3.21,0,0,1-.78,1.38,1.39,1.39,0,0,1-1.48.31,1.85,1.85,0,0,1-.84-1.43A6.68,6.68,0,0,1,502.34,389.17Z" transform="translate(-252.67 -70.45)"/><path class="cls-4" d="M482.73,405.27l48.95-1.2" transform="translate(-252.67 -70.45)"/><path class="cls-4" d="M511.37,389.44l2,6.55-.06-.36" transform="translate(-252.67 -70.45)"/><path class="cls-4" d="M514.92,389.62l2.43,6.63" transform="translate(-252.67 -70.45)"/><path class="cls-12" d="M518.5,390.35l1.77,6.25" transform="translate(-252.67 -70.45)"/><path class="cls-4" d="M494.19,379.44a27.64,27.64,0,0,1-14.62,9.28" transform="translate(-252.67 -70.45)"/><path class="cls-13" d="M399.24,245.44c4.39,5.44,8.53,11.8,10.33,18.44,19.59,1.38,23.39,2.65,42.74,5.45a19.55,19.55,0,0,1,15.77,13.38,325.93,325.93,0,0,1,14.34,65.7,112,112,0,0,1-15.25,5.9,632.58,632.58,0,0,0-32.3-57.68l-2.66-3.27-57.2-1c-3.27,0-6.67-.13-9.6-1.59-3.54-1.75-5.9-5.26-7.4-8.91-3.52-8.54-3-18.84,2.15-26.53S389.77,244.2,399.24,245.44Z" transform="translate(-252.67 -70.45)"/><path class="cls-14" d="M447.4,356.21c7.49,14.75,15.63,28.52,23.12,43.26A39.59,39.59,0,0,0,484,389.7c-5.16-11.68-10.2-29.44-17.13-42.45C462.12,349.83,452.31,355.21,447.4,356.21Z" transform="translate(-252.67 -70.45)"/><path class="cls-10" d="M470.94,402l-4.11-7.12A58.78,58.78,0,0,0,483,385.17c1.07,2.43,5.41,11.56,6.72,13.76C487,400.35,473.69,401.28,470.94,402Z" transform="translate(-252.67 -70.45)"/><path class="cls-6" d="M468.36,412.4c-1.22-6.3-1.22-11.47-1.31-17.89a7,7,0,0,0,6.17,1.39c1.13-.31,2.15-.95,3.29-1.23a6,6,0,0,1,6.56,3.12,16.6,16.6,0,0,1-1.09-5.31,5.69,5.69,0,0,1,2.26-4.73,8.4,8.4,0,0,1,3.91-1c1.25-.11,2.71-.15,3.54.79,2.1,2.37-.76,5.3-1.12,6.8A93.68,93.68,0,0,1,518.92,403c10.84,5.34,7.5,8.32,6.12,8.8C524.2,412.12,469.57,412.26,468.36,412.4Z" transform="translate(-252.67 -70.45)"/><path class="cls-4" d="M490.71,394.79a14,14,0,0,1,7,6,3.9,3.9,0,0,1,.63,1.86,1.62,1.62,0,0,1-1,1.58c-.93.33-1.83-.5-2.43-1.29a23.08,23.08,0,0,1-3.88-8.08,10.37,10.37,0,0,1-.23,6.49,3.21,3.21,0,0,1-.82,1.36,1.38,1.38,0,0,1-1.48.27,1.89,1.89,0,0,1-.8-1.45A6.65,6.65,0,0,1,490.71,394.79Z" transform="translate(-252.67 -70.45)"/><path class="cls-4" d="M470.66,410.34l49,.16" transform="translate(-252.67 -70.45)"/><path class="cls-4" d="M499.72,395.31q.94,3.3,1.87,6.61c0-.13,0-.25,0-.37" transform="translate(-252.67 -70.45)"/><path class="cls-4" d="M503.26,395.59l2.25,6.69" transform="translate(-252.67 -70.45)"/><path class="cls-12" d="M506.82,396.41l1.6,6.3" transform="translate(-252.67 -70.45)"/><path class="cls-4" d="M482.83,384.83A27.61,27.61,0,0,1,468,393.7" transform="translate(-252.67 -70.45)"/><path class="cls-15" d="M335.31,247.79a38.59,38.59,0,0,0-6.88,20.53c-.18,7.3,2.18,14.83,7.33,20,5.62,5.66,13.77,7.92,21.61,9.35a156.27,156.27,0,0,0,42.31,1.87c16.71,19.27,34.59,46,51.64,65.62a47.13,47.13,0,0,0,20.15-11.69c-10.91-21-21.81-41.66-33.1-62.08-3.82-6.89-7.18-10.73-14.7-13.06-17.14-5.32-33.59-12.27-34.86-12.67l20.76-1.79c-2.32-7.65-5.75-13.82-10.33-18.44Z" transform="translate(-252.67 -70.45)"/><path class="cls-4" d="M404.76,299c-17.72,3.16-36.36,1.63-51.21-2.09-7.92-2-14.46-4.1-19.51-10.52-9.25-11.77-4.36-26.65-1.67-32.44" transform="translate(-252.67 -70.45)"/><path class="cls-4" d="M353.93,260.23a19.09,19.09,0,0,1-19.12,2.45" transform="translate(-252.67 -70.45)"/><path class="cls-16" d="M453.29,358.61" transform="translate(-252.67 -70.45)"/><path class="cls-16" d="M409.87,295.6" transform="translate(-252.67 -70.45)"/><path class="cls-4" d="M400.08,300c17.1,22,34.21,43.91,50.83,65.34,6.25-2,13.55-4.82,20.33-11.61" transform="translate(-252.67 -70.45)"/><rect class="cls-17" x="0.5" y="171.5" width="361.76" height="15.5"/><line class="cls-18" x1="0.5" y1="171.5" x2="362.26" y2="171.5"/><line class="cls-18" x1="0.5" y1="187" x2="359.93" y2="187.01"/><path class="cls-5" d="M277.89,397.39q-3.63-9.61-7.27-19.23a15.52,15.52,0,0,1,15-4.81c2.09,6.16,4.1,12.45,5.81,19.27C287.09,394.21,282.73,395.8,277.89,397.39Z" transform="translate(-252.67 -70.45)"/><path class="cls-4" d="M291.45,392.62c-2.36-6-4.3-13.39-6.27-19.28a13.76,13.76,0,0,0-12.21,3" transform="translate(-252.67 -70.45)"/><path class="cls-4" d="M281.82,376.08a14.73,14.73,0,0,1-10.63,2.4" transform="translate(-252.67 -70.45)"/><path class="cls-4" d="M287.43,387.05l-15-4.34" transform="translate(-252.67 -70.45)"/><path class="cls-4" d="M287.31,390.19l-13.92-4.49" transform="translate(-252.67 -70.45)"/><path class="cls-19" d="M275,405.17l-3.9,2.79a56.87,56.87,0,0,0-.85-6.86,8.57,8.57,0,0,1,9.3-13.89l2.28-3c1.65,1.63,3.3,3.26,5.42,5.27a6.57,6.57,0,0,1,9.31,4.18,3,3,0,0,1,0,1.69,2.79,2.79,0,0,1-1.43,1.48,26.59,26.59,0,0,1,4.82,2.21,27,27,0,0,1-2.64,4.23l-6.19-.82a8.43,8.43,0,0,1-6.54,7.89C281,411.12,277,409.06,275,405.17Z" transform="translate(-252.67 -70.45)"/><path class="cls-4" d="M290.89,399.86a8,8,0,0,0-9.71-3,4,4,0,0,0-2.64,2.8" transform="translate(-252.67 -70.45)"/><path class="cls-4" d="M283.23,396.2a4.19,4.19,0,0,0-3.91-3.68" transform="translate(-252.67 -70.45)"/><path class="cls-4" d="M281.5,384.26a22.24,22.24,0,0,0-3.7,7.13" transform="translate(-252.67 -70.45)"/><path class="cls-4" d="M279.21,387.21a9.78,9.78,0,0,0-6.3.1" transform="translate(-252.67 -70.45)"/><path class="cls-4" d="M273.07,391.6l3.39,2.75a5.06,5.06,0,0,0-1.79,3" transform="translate(-252.67 -70.45)"/><path class="cls-4" d="M268.15,393.39a8.28,8.28,0,0,0,5.41,10.11" transform="translate(-252.67 -70.45)"/><path class="cls-4" d="M297.16,403.19a49.84,49.84,0,0,0-13-.67" transform="translate(-252.67 -70.45)"/><path class="cls-4" d="M279.62,403.06a13.72,13.72,0,0,1,6.6,2.14" transform="translate(-252.67 -70.45)"/><path class="cls-4" d="M287.45,389.79a5.32,5.32,0,0,1,7.48,7.37,11.6,11.6,0,0,1,4.51,1.92" transform="translate(-252.67 -70.45)"/><path class="cls-19" d="M291.12,390.66c1.14-1.68,2.52-3.51,4.53-3.75a4.34,4.34,0,0,1,3.7,1.63,6,6,0,0,1,1.15,4.53c1.4-1.38,3.75-1.25,5.51-.37a10.23,10.23,0,0,1,5,6.7,18.24,18.24,0,0,1-.21,8.56,5.27,5.27,0,0,0-2.62-2.2,8.74,8.74,0,0,0-2.69,3.45c-2.42-1.89-4.84-3.78-7.33-5.52a7.14,7.14,0,0,1-5.66,2.66,8.63,8.63,0,0,1-5.82-2.48,7.36,7.36,0,0,1-2.27-4.34,5.09,5.09,0,0,1,1.69-4.48C287.43,394,289.1,393.63,291.12,390.66Z" transform="translate(-252.67 -70.45)"/><path class="cls-4" d="M310.78,407.62a25.37,25.37,0,0,0-10.94-6.11" transform="translate(-252.67 -70.45)"/><path class="cls-4" d="M303.2,397.21a15.7,15.7,0,0,0-5.21.28,5.33,5.33,0,0,0-3.78,3.3" transform="translate(-252.67 -70.45)"/><path class="cls-4" d="M297,397.45a24.68,24.68,0,0,0-3.88-3.48,6.23,6.23,0,0,0,1.89-2.5" transform="translate(-252.67 -70.45)"/><path class="cls-4" d="M287.56,396.88a8.86,8.86,0,0,0,4,6.58" transform="translate(-252.67 -70.45)"/><path class="cls-4" d="M298.39,388.07a3.91,3.91,0,0,0-5.42.43c-.71.87-1,2-1.72,2.89-1,1.21-2.65,1.64-4,2.52a6.59,6.59,0,0,0,4.17,12" transform="translate(-252.67 -70.45)"/><path class="cls-4" d="M309,395.65a12.56,12.56,0,0,1,1.77,12.07" transform="translate(-252.67 -70.45)"/><path class="cls-4" d="M304.51,394.87a5,5,0,0,0-.79,5.17" transform="translate(-252.67 -70.45)"/><path class="cls-19" d="M315.91,437.32l-3.9,2.79a56.62,56.62,0,0,0-.85-6.86,8.58,8.58,0,0,1,9.3-13.9l2.28-3c1.65,1.63,3.3,3.26,5.42,5.28a6.57,6.57,0,0,1,9.32,4.17,3.07,3.07,0,0,1,0,1.7,2.78,2.78,0,0,1-1.43,1.47,27.28,27.28,0,0,1,4.82,2.21,27.51,27.51,0,0,1-2.63,4.23l-6.2-.81a8.41,8.41,0,0,1-6.54,7.88C321.93,443.26,317.93,441.2,315.91,437.32Z" transform="translate(-252.67 -70.45)"/><path class="cls-4" d="M331.82,432a8.15,8.15,0,0,0-4.32-3.24,8.05,8.05,0,0,0-5.39.25,4,4,0,0,0-2.64,2.79" transform="translate(-252.67 -70.45)"/><path class="cls-4" d="M324.16,428.35a4.2,4.2,0,0,0-3.91-3.69" transform="translate(-252.67 -70.45)"/><path class="cls-4" d="M322.43,416.4a22.45,22.45,0,0,0-3.7,7.13" transform="translate(-252.67 -70.45)"/><path class="cls-4" d="M320.14,419.36a9.71,9.71,0,0,0-6.3.1" transform="translate(-252.67 -70.45)"/><path class="cls-4" d="M314,423.74l3.39,2.75a5.08,5.08,0,0,0-1.79,3" transform="translate(-252.67 -70.45)"/><path class="cls-4" d="M309.08,425.54a8.26,8.26,0,0,0,5.41,10.1" transform="translate(-252.67 -70.45)"/><path class="cls-4" d="M338.09,435.33a49.84,49.84,0,0,0-13-.66" transform="translate(-252.67 -70.45)"/><path class="cls-4" d="M320.55,435.2a13.63,13.63,0,0,1,6.6,2.15" transform="translate(-252.67 -70.45)"/><path class="cls-4" d="M328.38,421.94a5.32,5.32,0,0,1,7.48,7.37,11.58,11.58,0,0,1,4.51,1.91" transform="translate(-252.67 -70.45)"/><path class="cls-19" d="M272.1,425.26c1.13-1.67,2.52-3.5,4.53-3.74a4.34,4.34,0,0,1,3.7,1.63,6,6,0,0,1,1.15,4.53c1.4-1.38,3.75-1.25,5.51-.37a10.23,10.23,0,0,1,5,6.7,18.19,18.19,0,0,1-.21,8.55,5.25,5.25,0,0,0-2.62-2.19,8.67,8.67,0,0,0-2.69,3.45c-2.42-1.89-4.84-3.78-7.33-5.52a7.14,7.14,0,0,1-5.66,2.66,8.63,8.63,0,0,1-5.82-2.48,7.39,7.39,0,0,1-2.27-4.34,5.09,5.09,0,0,1,1.69-4.48C268.41,428.61,270.08,428.24,272.1,425.26Z" transform="translate(-252.67 -70.45)"/><path class="cls-4" d="M291.76,442.23a25.5,25.5,0,0,0-10.94-6.12" transform="translate(-252.67 -70.45)"/><path class="cls-4" d="M284.18,431.82a15.69,15.69,0,0,0-5.21.28,5.33,5.33,0,0,0-3.78,3.3" transform="translate(-252.67 -70.45)"/><path class="cls-4" d="M278,432.06a25.13,25.13,0,0,0-3.88-3.48,6.12,6.12,0,0,0,1.88-2.5" transform="translate(-252.67 -70.45)"/><path class="cls-4" d="M268.54,431.48a8.84,8.84,0,0,0,4,6.59" transform="translate(-252.67 -70.45)"/><path class="cls-4" d="M279.37,422.68a3.91,3.91,0,0,0-5.42.43c-.71.87-1,2-1.72,2.89-1,1.21-2.65,1.64-4,2.52a6.59,6.59,0,0,0,4.17,12" transform="translate(-252.67 -70.45)"/><path class="cls-4" d="M290,430.25a12.58,12.58,0,0,1,1.77,12.08" transform="translate(-252.67 -70.45)"/><path class="cls-4" d="M285.48,429.47a5,5,0,0,0-.78,5.17" transform="translate(-252.67 -70.45)"/><path class="cls-4" d="M320.54,336.71c-1.24,25.76-3.16,52.34-5.9,76.68-2.32,1.52-50.27,1.3-50.27,1.3s-4.84-51.07-6.66-77.26C278.7,337,299.71,336.89,320.54,336.71Z" transform="translate(-252.67 -70.45)"/><path d="M323.17,333.11l-.06,3.34-67.33.93-.18-3.06C277.94,333.37,300.33,333.17,323.17,333.11Z" transform="translate(-252.67 -70.45)"/><path class="cls-4" d="M316.2,362.91q-12.42-12.14-26.13-23.11" transform="translate(-252.67 -70.45)"/><path class="cls-4" d="M316.57,349.26l-13.65-10.82" transform="translate(-252.67 -70.45)"/><path class="cls-4" d="M314.64,375.83l-39.74-36" transform="translate(-252.67 -70.45)"/><path class="cls-4" d="M312.89,389.94l-51.21-47.7" transform="translate(-252.67 -70.45)"/><path class="cls-4" d="M310.93,404Q287,380.15,261.26,357.79" transform="translate(-252.67 -70.45)"/><path class="cls-4" d="M307.9,410.47q-23.65-18.93-45.32-39.77" transform="translate(-252.67 -70.45)"/><path class="cls-4" d="M296.88,411.06l-32.51-27.24" transform="translate(-252.67 -70.45)"/><path class="cls-4" d="M284.23,411.11l-18.64-16.43" transform="translate(-252.67 -70.45)"/><path class="cls-4" d="M279.83,339.12q-9.07,7.25-17.45,15.15" transform="translate(-252.67 -70.45)"/><path class="cls-4" d="M297.63,339.72q-17.29,14-33.58,28.91" transform="translate(-252.67 -70.45)"/><path class="cls-4" d="M312,340.08q-25.12,20.84-48.12,43.66" transform="translate(-252.67 -70.45)"/><path class="cls-4" d="M315.48,353.76a626.3,626.3,0,0,0-49.82,49.83" transform="translate(-252.67 -70.45)"/><path class="cls-4" d="M315.46,370.9q-21.16,19.38-40.84,40" transform="translate(-252.67 -70.45)"/><path class="cls-4" d="M308.18,395.28l-17.53,14.94" transform="translate(-252.67 -70.45)"/><path class="cls-3" d="M363.38,219.75l-30.79.53a24.18,24.18,0,0,1-5.45-.32,8,8,0,0,1-4.65-2.68c-1.67-2.13-1.69-5.08-1.63-7.79q.19-9.47.41-18.93a32,32,0,0,1,.79-7.76,10.94,10.94,0,0,1,4.21-6.38c2.24-1.49,5.05-1.77,7.73-2a231.14,231.14,0,0,1,24.32-.46C360.57,189.07,362.2,204.24,363.38,219.75Z" transform="translate(-252.67 -70.45)"/><path class="cls-4" d="M332.9,175.05c-3,.26-6.17,1-8.17,3.25-1.53,1.73-2.11,4.08-2.52,6.35-1.17,6.48-1.29,13.1-1.41,19.69" transform="translate(-252.67 -70.45)"/><path class="cls-4" d="M327.73,183.35a126.82,126.82,0,0,0-1,27.67c.17,2.24.56,4.79,2.44,6" transform="translate(-252.67 -70.45)"/><path class="cls-6" d="M551.5,307.94a4.88,4.88,0,0,0,1.24-3.3,3.26,3.26,0,0,0-2.2-2.44,7.27,7.27,0,0,0-3.41-.22c-6.4.74-12,4.2-17.3,8-2.12-4.77-2.09-10.42-1.3-15.66.26-1.74.6-3.46,1-5.16a64.29,64.29,0,0,0,17.08-.47c1.65-.27,3.65-1,3.81-2.64s-1.51-2.66-3-3.3a59.28,59.28,0,0,0-14.58-4.28,129.77,129.77,0,0,1,6.18-13.31,47.69,47.69,0,0,0,7.74,2.37,5.34,5.34,0,0,0,2.06.16,1.93,1.93,0,0,0,1.55-1.24c.27-.94-.44-1.86-1.14-2.55a33.82,33.82,0,0,0-6.68-5.17c2.11-3.73,4.3-7.46,6.48-11.21,8.27,4.85,18.1,6,27.51,7.88l1.06.21a33.76,33.76,0,0,0-5.56,9c-.52,1.28-.88,2.91.07,3.91s2.81.69,4.17.08c4.88-2.18,8.82-5.93,12.5-9.86a32.6,32.6,0,0,1,13.31,8.69,23.72,23.72,0,0,1,3.38,5.11,63.54,63.54,0,0,0-16,0c-1.27.15-2.74.49-3.29,1.65a2.69,2.69,0,0,0,.6,2.82,7.11,7.11,0,0,0,2.57,1.6,85.27,85.27,0,0,0,18.67,5.08A24.64,24.64,0,0,1,604.48,297a26,26,0,0,1-27.6,11,34.26,34.26,0,0,1-27.26,13.23,27.54,27.54,0,0,1-9.28-1.73A55.5,55.5,0,0,0,551.5,307.94Z" transform="translate(-252.67 -70.45)"/><path class="cls-4" d="M556.41,262.06a195.58,195.58,0,0,1,29.77,102.13" transform="translate(-252.67 -70.45)"/><path class="cls-4" d="M566.36,280.42l-28-8.42" transform="translate(-252.67 -70.45)"/><path class="cls-4" d="M591.51,286.1l-15.45,17.75" transform="translate(-252.67 -70.45)"/><path class="cls-4" d="M600.71,301.62a25.08,25.08,0,0,1-23.94,6.84,34.33,34.33,0,0,1-36,11,42.52,42.52,0,0,0,10.33-11.19,6.55,6.55,0,0,0,1.36-4c-.14-1.43-1.56-2.8-2.93-2.36" transform="translate(-252.67 -70.45)"/><path class="cls-4" d="M548.25,283.62a2,2,0,0,1,2.32,1.81,3.08,3.08,0,0,1-1.71,2.72,8,8,0,0,1-3.27.81,101.86,101.86,0,0,1-15.91-.23,18.51,18.51,0,0,0-1.64,7.62" transform="translate(-252.67 -70.45)"/><path class="cls-4" d="M605.58,272.2A25.35,25.35,0,0,0,589.11,259c-3,2.77-11.83,11.15-16.85,9.83" transform="translate(-252.67 -70.45)"/><path class="cls-20" d="M577.1,322a30.55,30.55,0,0,0,0,5.06c.74,7.8,4.94,15.41,11.67,19.42a20.54,20.54,0,0,0,11.91,2.9,26.52,26.52,0,0,0,25.54,8.81,26,26,0,0,0,10.89-5.39,69.85,69.85,0,0,1-6.7-4.36c-2.58-1.9-5.14-4.16-6.08-7.23s.46-7,3.58-7.8c2.15-.52,4.34.57,6.21,1.74a51.94,51.94,0,0,1,10.2,8.38,24.85,24.85,0,0,0,1.35-3.58c2.06-7.15,1-14.85-1.08-22-.21-.71-.42-1.42-.64-2.13q-7.05-.73-14-1.92c-1.23-.21-2.67-.61-3.05-1.79a2.24,2.24,0,0,1,.67-2.22,4.87,4.87,0,0,1,2.14-1.1c3.82-1.09,7.86-.33,11.84-.1-1.4-3.95-2.81-7.9-3.86-12-1.86-7.21-2.51-15,.15-22a71.62,71.62,0,0,0-17.46,3.47A45.38,45.38,0,0,1,626,288.81c.65,2,1,4.45-.62,5.79s-4.11.59-5.9-.55c-4.28-2.73-7.21-7-9.7-11.46a85.77,85.77,0,0,0-9.92,5.82c-6.47,4.4-12.43,9.75-16.68,16.33a41,41,0,0,0-2.61,4.67,37.82,37.82,0,0,1,7.5,1.19,18.83,18.83,0,0,1,10.25,6.53c1.23,1.67,2.07,4,1,5.76s-3.73,2-5.9,1.88A99.9,99.9,0,0,1,577.1,322Zm46.12,1.11a4.12,4.12,0,0,1,4.71-2.41,7.43,7.43,0,0,1,4.28,2.07,3.67,3.67,0,0,1,.5,4.44,4.5,4.5,0,0,1-3.33,1.51,6.72,6.72,0,0,1-4.66-1.23A4.14,4.14,0,0,1,623.22,323.07Zm-20.51-22.33a3.16,3.16,0,0,1,3.73-.79,9.65,9.65,0,0,1,2.83,2.48,3.28,3.28,0,0,1,.23,3.56,3.54,3.54,0,0,1-3.73,1.12,5,5,0,0,1-3.36-2.38A3.62,3.62,0,0,1,602.71,300.74Z" transform="translate(-252.67 -70.45)"/><path class="cls-4" d="M624.36,297.84a121.23,121.23,0,0,0-26.77,79.07" transform="translate(-252.67 -70.45)"/><path class="cls-4" d="M609.32,322q-8.22-12-15.25-24.71" transform="translate(-252.67 -70.45)"/><path class="cls-4" d="M602.13,340.25a115.89,115.89,0,0,1,21.29-8.69" transform="translate(-252.67 -70.45)"/><path class="cls-4" d="M619.88,304.26q7.77-1.83,15.39-4.17" transform="translate(-252.67 -70.45)"/><path class="cls-4" d="M637.55,274.34a48.25,48.25,0,0,0,4.44,34c-3.7,0-9.72-.28-12.26.37-4.89,1.25-2.77,5.15,2.64,6" transform="translate(-252.67 -70.45)"/><path class="cls-4" d="M623.91,321.44a4.71,4.71,0,0,0,2.4,7.38" transform="translate(-252.67 -70.45)"/><path class="cls-4" d="M591.18,295.25c-5.46,4.69-9,9.3-11.1,14.35A23.89,23.89,0,0,1,595,314" transform="translate(-252.67 -70.45)"/><path class="cls-4" d="M577,322.06a23.93,23.93,0,0,0,24.26,27.21,22.06,22.06,0,0,0,13.7,9.15" transform="translate(-252.67 -70.45)"/><path class="cls-4" d="M644.27,343.67a27.22,27.22,0,0,0-10.55-9.13,10.07,10.07,0,0,0-5.41-1.26,4.53,4.53,0,0,0-4,3.38" transform="translate(-252.67 -70.45)"/><path class="cls-15" d="M578.18,428.5c-3.81-21.3-6.64-44-10.32-64.56,16.48-.14,33.27-.26,50.51-.73-3.31,21.3-7.45,44.32-12.69,65.29C596.14,428.38,588.29,429,578.18,428.5Z" transform="translate(-252.67 -70.45)"/><path class="cls-21" d="M612.47,420.35c-.34.74-1.05,5.34-1.64,8.15-1,.1-37.29.31-38.21,0a74.54,74.54,0,0,0-2.85-8.94C584,419.76,598.18,420,612.47,420.35Z" transform="translate(-252.67 -70.45)"/><path class="cls-4" d="M609.92,420.1c-12.89,0-26.91-.3-40.11-.3.94,2.6,1.88,6.1,2.81,8.7" transform="translate(-252.67 -70.45)"/><path class="cls-21" d="M569.6,373.35l1.87-1.91,1.71,2.06c2.44,2.95,4.91,6.11,7.35,9.41a52.49,52.49,0,0,1,7.75-7.66l1.5-1.2,1.5,1.19a53.86,53.86,0,0,1,8.23,8.18c2.66-2.44,5.41-4.93,8.3-7.18l1.56-1.22,1.5,1.3a55.23,55.23,0,0,1,4.56,4.51q-.55,3.07-1.12,6.13a56.24,56.24,0,0,0-5.13-5.66c-2.43,2-4.77,4.14-7.21,6.39l-3.09,2.83-1.59-2.13a52,52,0,0,0-7.5-8.14,46.92,46.92,0,0,0-7.34,8.07l-2,2.72-2-2.71c-2.43-3.37-4.89-6.6-7.34-9.64l-.71.82q-.48-3-1-6.06Z" transform="translate(-252.67 -70.45)"/><path class="cls-4" d="M614.83,367.4a33,33,0,0,0-1.53,8.29" transform="translate(-252.67 -70.45)"/><path class="cls-4" d="M611,387l-6.57,30" transform="translate(-252.67 -70.45)"/><polygon class="cls-8" points="139.54 174 183.82 181.24 255.61 181.09 208.81 173.23 139.54 174"/><path class="cls-22" d="M436.5,251.54h71.79s17.44-31.86,26.64-58.17c.42-1.18-71.34,0-71.34,0Z" transform="translate(-252.67 -70.45)"/><path class="cls-8" d="M494.31,200.55c-4,.71-5.23,5.38-4.06,7.71s5.35,3.65,9,1.13a5.07,5.07,0,0,0,1.63-5.15C500.49,202.38,498.19,199.87,494.31,200.55Z" transform="translate(-252.67 -70.45)"/><path class="cls-4" d="M438.17,247.48c8.23-18.36,25.26-54.11,25.26-54.11s48.7-.86,71.5,0" transform="translate(-252.67 -70.45)"/><path class="cls-23" d="M594.44,216.77a20,20,0,0,0,6.25-10.58,7.28,7.28,0,0,0,.17-3c-.19-1-.7-2.11-1.66-2.36a3.92,3.92,0,0,0-2.66.64,12.31,12.31,0,0,0,1.27-7.4,4.31,4.31,0,0,0-1.85-3.32,3.45,3.45,0,0,0-3.26.22,10.07,10.07,0,0,0-2.52,2.27,11.15,11.15,0,0,0-1.07-4.23,4.79,4.79,0,0,0-3.33-2.62,3.12,3.12,0,0,0-3.47,2,13.43,13.43,0,0,0-2.23-3.89,5.76,5.76,0,0,0-3.87-2.05,5.5,5.5,0,0,0-4.46,2.23,10.37,10.37,0,0,0-1.9,4.75,18.82,18.82,0,0,0,1.34,10.68,2.39,2.39,0,0,0-3-.32,3.63,3.63,0,0,0-1.58,2.69,7.55,7.55,0,0,0,.46,3.18c1.54,4.63,5,8.32,8.27,12C581.75,217.28,588.15,217,594.44,216.77Z" transform="translate(-252.67 -70.45)"/><path class="cls-4" d="M568.06,199.93a4.22,4.22,0,0,1,3.81.38,10.81,10.81,0,0,1,5.15,6,2.35,2.35,0,0,1,.16.87.88.88,0,0,1-.44.74c-.45.22-1-.11-1.33-.44-2.12-1.95-3.33-4.68-4.3-7.39a27.32,27.32,0,0,1-1.57-6.16,12.43,12.43,0,0,1,.79-6.25" transform="translate(-252.67 -70.45)"/><path class="cls-4" d="M579.54,184a19.71,19.71,0,0,1,4.11,8.47c.51,3.38-.63,5.26-2,5.26-2.79,0-2-6.41.37-9.4,1.16-1.43,2.79-3.39,5.82-1.16,2.45,1.8,2.58,5.16,2.51,7.24-.16,4.76-1.09,6.61-2.39,7.12-1.66.65-1.88-1-1.73-2.28.41-3.55,3.75-6.56,6.81-8.42" transform="translate(-252.67 -70.45)"/><path class="cls-4" d="M597.84,196.71a28.52,28.52,0,0,1-1.07,4.95,9.09,9.09,0,0,1-2.77,4.17,2,2,0,0,1-.89.46.78.78,0,0,1-.84-.43,1.12,1.12,0,0,1,.17-.91,8.11,8.11,0,0,1,4.24-3.65,3.51,3.51,0,0,1,2.23-.21A2.9,2.9,0,0,1,600.7,203a6.1,6.1,0,0,1,.14,2.69c-.58,4.29-3.15,8.07-6.11,11.23" transform="translate(-252.67 -70.45)"/><path class="cls-15" d="M598.53,216.8q-1.62,12.6-3.26,25.21l-18.24.24q-2-12.47-4-24.95Z" transform="translate(-252.67 -70.45)"/><path class="cls-21" d="M599.84,215.64c-9.21.21-19.47.42-28.91.49.57,2.21,1.07,4.44,1.62,6.77A230.91,230.91,0,0,1,599,223C599.21,221.47,599.77,217.24,599.84,215.64Z" transform="translate(-252.67 -70.45)"/><path class="cls-15" d="M572.44,221.75a33.66,33.66,0,0,0-1.94-5.29c9.43-1,29.34-.82,29.34-.82" transform="translate(-252.67 -70.45)"/><path class="cls-15" d="M576.68,220.53l18.83.41" transform="translate(-252.67 -70.45)"/><path class="cls-15" d="M597.08,225.86c-.46,5.25-1.15,10.48-2,15.94l-17.4.4" transform="translate(-252.67 -70.45)"/><path class="cls-14" d="M392.89,194.63c-16.64-.68-29.57-24.15-33.07-40.43,32.16-19.7,50.14-7.65,52.95,5.43C407.4,174.78,408.39,195.26,392.89,194.63Z" transform="translate(-252.67 -70.45)"/><path class="cls-24" d="M330.48,241.45c-2.25-56.8,10.63-101.33,48.79-96.66,7.34,12.51,20.92,11.15,25.33,2.47,23.72,36.38-3.74,81.22-18.47,94.19Z" transform="translate(-252.67 -70.45)"/><path class="cls-10" d="M385,238c-1.84-.27-5,.3-7.09,0,3.56-14.39,5.86-63,1.31-93.25h.08c7.26,12.38,20.68,10.86,25.33,2.47l.62.07C404.51,179.33,391.72,224.52,385,238Z" transform="translate(-252.67 -70.45)"/><path class="cls-3" d="M371.55,95.76a27.8,27.8,0,0,1,2.85-11.87A21,21,0,0,1,382.7,75a16.81,16.81,0,0,1,11.89-1.84A14.12,14.12,0,0,1,404,80.47c1.82,3.67,1.71,8.31-.35,11a42.58,42.58,0,0,1-19.9,15.71c-2.85,2.83-5.84,5.76-9.65,7a3.72,3.72,0,0,1-1.54.25,1.59,1.59,0,0,1-1.29-.76,2.27,2.27,0,0,1,.16-2,16.89,16.89,0,0,1,3.32-4.78c-3.22,2-6.62,4-10.39,4.18a4.21,4.21,0,0,1-3.5-1.11,3.15,3.15,0,0,1-.5-2.81,5.78,5.78,0,0,1,1.57-2.48c2.12-2.14,5.07-3.21,8-4.48a5.86,5.86,0,0,1-4.4-.5,2.27,2.27,0,0,1-1.34-1.72,1.82,1.82,0,0,1,.91-1.53,4.14,4.14,0,0,1,1.77-.52C368.36,95.83,369.87,95.91,371.55,95.76Z" transform="translate(-252.67 -70.45)"/><path class="cls-3" d="M393.15,137.26a27.94,27.94,0,0,1-11.47-12.91c-4.95-11.63-1.27-23.35,1.36-27.92a15.41,15.41,0,0,1,25.39-1.55c2.65,6.24,2,13.38.48,20a43.16,43.16,0,0,1-5.12,13.46C401.22,132.43,397.47,135.91,393.15,137.26Z" transform="translate(-252.67 -70.45)"/><path class="cls-4" d="M401.22,89.73a13.8,13.8,0,0,0-12.72,1.16c-9.43,5.92-14.39,26.07-3,39.23" transform="translate(-252.67 -70.45)"/><path class="cls-25" d="M403.56,89.27a9.13,9.13,0,0,0,.74-6.84,14.67,14.67,0,0,0-3.49-6,16.61,16.61,0,0,0-8.75-5.2,15.55,15.55,0,0,0-12.29,3.17,21.49,21.49,0,0,0-7.13,10.77,34.47,34.47,0,0,0-1.15,13" transform="translate(-252.67 -70.45)"/><path class="cls-4" d="M391.9,77.16c-4.13-.91-8.5,1.25-11.16,4.54s-3.88,7.51-4.56,11.68" transform="translate(-252.67 -70.45)"/><path class="cls-4" d="M396.44,81.69A8.65,8.65,0,0,0,384.51,83" transform="translate(-252.67 -70.45)"/><path class="cls-14" d="M399.81,129.68l.33,18.44a13.81,13.81,0,0,1-13.19-.05c.65-6.23.91-18.18,1-24.21C391.76,122.33,396.25,128.12,399.81,129.68Z" transform="translate(-252.67 -70.45)"/><path class="cls-14" d="M399.71,143.47c-4.48-2.05-12.87-10.4-12.08-24.28.66-11.51,2.58-24.53,18.07-24.54s17.73,13.11,17.94,24.64c.14,7.81-1.91,18.76-9.84,23.7C408.35,146.39,402.92,144.93,399.71,143.47Z" transform="translate(-252.67 -70.45)"/><path class="cls-4" d="M422.55,129.46c-3.3,12.87-10,15-14.76,15.49S398,143,394.7,139.65" transform="translate(-252.67 -70.45)"/><path class="cls-4" d="M415.21,116.31l-.27,9.74" transform="translate(-252.67 -70.45)"/><path d="M420.84,119.87c0-.74.36-1.34.84-1.34s.86.58.87,1.32-.37,1.34-.84,1.34S420.84,120.61,420.84,119.87Z" transform="translate(-252.67 -70.45)"/><path d="M405.78,119.4c0-.74.37-1.34.84-1.34s.87.58.87,1.32-.37,1.34-.84,1.35S405.79,120.14,405.78,119.4Z" transform="translate(-252.67 -70.45)"/><path class="cls-4" d="M423.7,115a3.66,3.66,0,0,0-2.2-1.39,3.6,3.6,0,0,0-2.56.47" transform="translate(-252.67 -70.45)"/><path class="cls-4" d="M409,113.68a4.17,4.17,0,0,0-2.87-1.18,4.1,4.1,0,0,0-2.86,1.18" transform="translate(-252.67 -70.45)"/><path d="M410.42,127.75c.38,2.16,1.29,3.76,2.26,4s2-.89,2.5-2.83Z" transform="translate(-252.67 -70.45)"/><path class="cls-26" d="M412.65,130a2.21,2.21,0,0,0-1.61-.94l-.32,0c.46,1.49,1.19,2.53,2,2.72l.15,0A2.54,2.54,0,0,0,412.65,130Z" transform="translate(-252.67 -70.45)"/><path class="cls-3" d="M408.43,94.88a30.28,30.28,0,0,1,3.23-3.24,6.2,6.2,0,0,1,4.55-1.42,7.64,7.64,0,0,1,4.48,2.89,19.12,19.12,0,0,1,4.85,12.1c0,1.62-.31,3.46-1.66,4.35a3.67,3.67,0,0,1-2.68.42,8.6,8.6,0,0,1-2.56-1,32.53,32.53,0,0,1-8.23-6.64c-.23,1.94-.57,4-2,5.4a2.16,2.16,0,0,1-1.69.74,2.47,2.47,0,0,1-1.63-1.19,10.46,10.46,0,0,1-1.82-6.49,26.55,26.55,0,0,1-7.81,14.92c-1.46,1.4-3.3,2.7-5.34,2.75a15,15,0,0,1,11.31-26.13C404.07,92.56,408.43,94.88,408.43,94.88Z" transform="translate(-252.67 -70.45)"/><path class="cls-4" d="M418.4,93.82a11.63,11.63,0,0,1,3.87,10.86" transform="translate(-252.67 -70.45)"/><path class="cls-4" d="M418.7,97a9.75,9.75,0,0,1-1.29,9.61" transform="translate(-252.67 -70.45)"/><path class="cls-4" d="M404.46,97.9a10.75,10.75,0,0,0-6.42,7.94" transform="translate(-252.67 -70.45)"/><path class="cls-4" d="M404.39,95.59a9.16,9.16,0,0,0-7.87,5.72" transform="translate(-252.67 -70.45)"/><path class="cls-14" d="M390.2,118.54a12.43,12.43,0,0,0-4.05-3.73,4.46,4.46,0,0,0-5.13.58,4.35,4.35,0,0,0-1,3.11,6,6,0,0,0,3.47,5.21,5.52,5.52,0,0,0,6.05-1.13C389.71,121.51,389.92,120.45,390.2,118.54Z" transform="translate(-252.67 -70.45)"/><path class="cls-4" d="M383.73,117.28l2.1,3.79" transform="translate(-252.67 -70.45)"/><path class="cls-4" d="M382.67,120.35a30.6,30.6,0,0,1,4-2.37" transform="translate(-252.67 -70.45)"/><path class="cls-4" d="M380,116.22a6.14,6.14,0,0,0,9.83,6.49" transform="translate(-252.67 -70.45)"/><path class="cls-24" d="M367.45,240.63c13.22,4.37,27.67,3.5,41.64,2.46,7.41-.55,15.62-1.49,20.47-6.79a18.3,18.3,0,0,0,4.91-12c.17-27-18.41-76.57-29.54-77-.62.31,4.3,73.77,4.3,73.77a402.17,402.17,0,0,0-44.59,5.78A13.63,13.63,0,0,1,367.45,240.63Z" transform="translate(-252.67 -70.45)"/><path class="cls-4" d="M415.22,221.07a414.11,414.11,0,0,0-50.58,5.78" transform="translate(-252.67 -70.45)"/><path class="cls-4" d="M413.71,177.1c.49,15.84-4.65,31.51-12.56,45.09" transform="translate(-252.67 -70.45)"/><path class="cls-14" d="M425.85,247.46c-3.75-.63-6.55-1.21-10.46-1.85a11.88,11.88,0,0,1-8,2,11.53,11.53,0,0,1-7.48-3.73,90.9,90.9,0,0,0-13.24.74,38.82,38.82,0,0,1,1.33-13c4.77.22,9.53.44,13.92,1a31.86,31.86,0,0,1,32.22,12.53,1.45,1.45,0,0,1,.26,1.25c-.23.87-1.17.93-1.94.89a40.22,40.22,0,0,1-5.14-.58h0A1.53,1.53,0,0,1,425.85,247.46Z" transform="translate(-252.67 -70.45)"/><path class="cls-4" d="M416.86,240.52a14.44,14.44,0,0,1,10.51,6.13" transform="translate(-252.67 -70.45)"/><path class="cls-4" d="M418.27,236.58a29.45,29.45,0,0,1,14.4,10.57" transform="translate(-252.67 -70.45)"/><path class="cls-24" d="M395.7,246.19c-13.22,4.64-27.66,3.72-41.64,2.62-7.41-.58-15.61-1.58-20.47-7.21a20.13,20.13,0,0,1-4.9-12.76c-.17-28.64,15.68-74.69,26.48-77.61,16.8,4.63-1.24,74.18-1.24,74.18a383.35,383.35,0,0,1,44.58,6.14A15.16,15.16,0,0,0,395.7,246.19Z" transform="translate(-252.67 -70.45)"/><path class="cls-4" d="M347.94,225.41a396.37,396.37,0,0,1,50.57,6.14" transform="translate(-252.67 -70.45)"/><path class="cls-4" d="M362,177.25c-.7,16.33-5.09,32.17-8.11,48.16" transform="translate(-252.67 -70.45)"/><polygon class="cls-27" points="57.47 68.12 51.63 187 217.93 187 92.45 54 57.47 68.12"/></g></g></svg>