<svg id="BACKGROUND" xmlns="http://www.w3.org/2000/svg" xmlns:xlink="http://www.w3.org/1999/xlink" viewBox="0 0 673.94 446.75"><defs><style>.cls-1,.cls-17,.cls-18,.cls-20,.cls-3,.cls-5,.cls-6,.cls-8{fill:none;}.cls-2{fill:#e5e5e5;}.cls-20,.cls-3,.cls-5{stroke:#000;}.cls-17,.cls-18,.cls-20,.cls-3,.cls-5,.cls-6,.cls-8{stroke-linecap:round;stroke-linejoin:round;}.cls-3,.cls-6{stroke-width:2.02px;}.cls-4{fill:#f9ff00;}.cls-6{stroke:#ebb956;}.cls-7{fill:#8d8d8d;}.cls-8{stroke:#8d8d8d;}.cls-9{clip-path:url(#clip-path);}.cls-10{fill:#e9c6aa;}.cls-11{fill:#66a0af;}.cls-12{fill:#3f6888;}.cls-13{fill:#773c45;}.cls-14{fill:#d04060;}.cls-15{fill:#fff;}.cls-16{fill:#c1c1c1;}.cls-17{stroke:#222221;}.cls-18{stroke:#fff;}.cls-19{fill:#373537;}.cls-20{stroke-width:1.22px;}.cls-21{fill:#d9a086;}.cls-22{fill:#78c3ce;}.cls-23{fill:#ebb956;}.cls-24{fill:#66ada8;}.cls-25{fill:#9b8b5f;}.cls-26{fill:#c9a273;}</style><clipPath id="clip-path" transform="translate(-67.76 -26.47)"><path class="cls-1" d="M68,227.63A1148.2,1148.2,0,0,1,76.42,61.24a1471.22,1471.22,0,0,1,186.44,3.09c1,53.21.18,106.61-1.86,161.46C197.36,224.09,133.66,224.58,68,227.63Z"/></clipPath></defs><ellipse class="cls-2" cx="470.29" cy="177.32" rx="46.54" ry="42.16"/><path class="cls-2" d="M542.46,231.17a287.66,287.66,0,0,1,17.67,29.13,141.3,141.3,0,0,0,2.75-29A59.08,59.08,0,0,0,542.46,231.17Z" transform="translate(-67.76 -26.47)"/><path class="cls-3" d="M492.39,195.42c-3.55,14.75,3.29,30.94,15.24,40.28s28.2,12.23,42.85,9.24c3.21,5.46,5.8,9.68,9,15.14" transform="translate(-67.76 -26.47)"/><path class="cls-4" d="M534.09,216.78c-.22-1.69-.43-3.38-.48-5a24.66,24.66,0,0,1-11-6.33,16.62,16.62,0,0,1-4.81-11.56c.12-6.3,4.59-11.94,10.17-14.86a24.31,24.31,0,0,1,25.68,2.37c10.46,8.22,6.71,18.9,2.4,23.82s-10.91,7-10.91,7a31.15,31.15,0,0,1-.19,5.26C541.36,217.22,537.79,217,534.09,216.78Z" transform="translate(-67.76 -26.47)"/><path class="cls-5" d="M540.32,217a75.77,75.77,0,0,0,5-10.51,25.53,25.53,0,0,0,1.54-11.43,6.59,6.59,0,0,0-.78-2.61,2.81,2.81,0,0,0-2.21-1.43,2.92,2.92,0,0,0-2.38,1.36,8.82,8.82,0,0,0-1.09,2.63c-.32,1.1-.43,2.65.64,3.05s2-1,2.32-2.1a11.23,11.23,0,0,0-.27-5.92c-.62-1.88-2.1-3.79-4.08-3.74a4,4,0,0,0-3.25,2.32,10.81,10.81,0,0,0-.89,4.07,74.56,74.56,0,0,0,2,23.73" transform="translate(-67.76 -26.47)"/><path class="cls-3" d="M529.11,182.44a14.59,14.59,0,0,0-4.64,13.21" transform="translate(-67.76 -26.47)"/><path class="cls-3" d="M525.69,199.29a6.44,6.44,0,0,0,1.73,3.72" transform="translate(-67.76 -26.47)"/><path class="cls-6" d="M553.63,181.44a16.28,16.28,0,0,1,6.72,11.68c.83,11.48-8.43,18.59-15.23,19.09-.22.27.07,1.91,0,3.26" transform="translate(-67.76 -26.47)"/><path class="cls-7" d="M534.18,216.75a56.87,56.87,0,0,0,.07,13.92c.17,1.35.48,2.83,1.59,3.61s2.71.56,4.07.2a7.12,7.12,0,0,0,3.63-1.84c1.22-1.36,1.33-3.36,1.37-5.19.07-3.09.29-7.08.06-10.31C541.42,216.7,537.72,217.17,534.18,216.75Z" transform="translate(-67.76 -26.47)"/><path class="cls-5" d="M545.94,222.61a90.78,90.78,0,0,0-11.09-2.13" transform="translate(-67.76 -26.47)"/><path class="cls-5" d="M545.33,227.15l-11.27-2.56" transform="translate(-67.76 -26.47)"/><path class="cls-5" d="M544.54,231.54l-10.42-2.24" transform="translate(-67.76 -26.47)"/><path class="cls-8" d="M539.29,233.67l-.15,2.62" transform="translate(-67.76 -26.47)"/><path class="cls-2" d="M68,227.63A1148.2,1148.2,0,0,1,76.42,61.24a1471.22,1471.22,0,0,1,186.44,3.09c1,53.21.18,106.61-1.86,161.46C197.36,224.09,133.66,224.58,68,227.63Z" transform="translate(-67.76 -26.47)"/><g class="cls-9"><path class="cls-10" d="M222,173.33a99.25,99.25,0,0,1,2.79-12.52l.28-.27a36,36,0,0,1,15.81-8.8,47.26,47.26,0,0,0,10.08-4,3.74,3.74,0,0,0,1.9-1.69,1.55,1.55,0,0,0,.13-.85c-.13-.93-.95-1.22-1.69-1.41a31.85,31.85,0,0,0-11.72.07c4.27-1.6,10.06-3.36,13.69-4.71a4.38,4.38,0,0,0,1.48-.78,1.52,1.52,0,0,0,.54-1.5c-.22-.77-1.13-1.07-1.91-1.2-5.83-1-11.81.4-17.45,2.22a15.62,15.62,0,0,1,2.05-1.68c2.08-1.38,4.22-2.71,6.36-4.05a3.33,3.33,0,0,0,1-.84,1.15,1.15,0,0,0,.1-1.24,1.65,1.65,0,0,0-1.45-.49,33,33,0,0,0-13.69,3.49,64.52,64.52,0,0,0-11.9,7.76,35.61,35.61,0,0,0,2.2-7.61,2.35,2.35,0,0,0-.45-2.21,1.59,1.59,0,0,0-1.45-.23,4.14,4.14,0,0,0-1.32.75,26.7,26.7,0,0,0-4.2,4,32.82,32.82,0,0,0-7.54,22.21c.1,3.29.38,6.61.81,10C211.15,171.11,216.39,173.63,222,173.33Z" transform="translate(-67.76 -26.47)"/><path class="cls-5" d="M220.4,131.07a4.55,4.55,0,0,1,.25,3.61,31.67,31.67,0,0,1-2.71,7.29" transform="translate(-67.76 -26.47)"/><path class="cls-5" d="M218.33,140.9a14.86,14.86,0,0,1,12.83,7.7" transform="translate(-67.76 -26.47)"/><path class="cls-5" d="M253.59,135.91a28.94,28.94,0,0,0-19.74,3.42" transform="translate(-67.76 -26.47)"/><path class="cls-5" d="M251.63,144.06a26.25,26.25,0,0,0-15.09,1" transform="translate(-67.76 -26.47)"/><path class="cls-11" d="M167.6,137.76c15,8.51,27.15,23.31,30.84,41,2.15-6.81,4.29-13.63,6.62-20.22a30.29,30.29,0,0,0,21.57,8.29l-5.34,47.55c-.92,8.22-1.84,16.45-3.37,24.58-1.15,6.11-3,12.67-8,16.37s-12.58,3.43-18,.14-9.09-9-11.1-15.09-2.55-12.48-3.08-18.83C175.69,197.06,167.6,137.76,167.6,137.76Z" transform="translate(-67.76 -26.47)"/><path class="cls-5" d="M191.83,210.48c1-11.78,8.8-43,13-51.54,6.77,4.75,13.49,7.86,21.76,7.85" transform="translate(-67.76 -26.47)"/><path class="cls-5" d="M203.87,172.07a30.72,30.72,0,0,0,19.8,1.79" transform="translate(-67.76 -26.47)"/><path class="cls-5" d="M220.62,169.94a1.15,1.15,0,0,0-.74.72,1,1,0,0,0,.17,1,.92.92,0,0,0,1,.3,1.62,1.62,0,0,0,.75-.67,1.15,1.15,0,0,0,.26-1,.75.75,0,0,0-.58-.48A1.55,1.55,0,0,0,220.62,169.94Z" transform="translate(-67.76 -26.47)"/><path class="cls-12" d="M103.07,250.25c-9.83-32.07-13.58-63.5-3.12-95.37,2.42-7.37,2.46-15.63,15.73-20.84,13-5.11,30.58-3.66,44.52.34l.12,0a23.68,23.68,0,0,1,16.12,16c10,33.58,13.86,64.9,11.38,99.84" transform="translate(-67.76 -26.47)"/><path class="cls-13" d="M142.26,119.11s-6.16-3.09-8.95-6.73c-2.43-3.16-12.46-23.77-2.12-28.13C134.94,82.67,142.26,119.11,142.26,119.11Z" transform="translate(-67.76 -26.47)"/><polygon points="66.17 97.94 87.96 102.42 89.82 116.33 86.83 108.7 74.67 113.38 66.17 97.94"/><path class="cls-10" d="M138.07,132c3.67,5,5.41,5.49,8,21.38a162.28,162.28,0,0,0,8.71-18.9h0l-.42-24a20.18,20.18,0,0,0-15.31-.24" transform="translate(-67.76 -26.47)"/><path class="cls-11" d="M143,139.1c-3.43-5.64-9.16-14.79-9.16-14.79l-4.45,9.43,8.48,14.64S142.06,142.09,143,139.1Z" transform="translate(-67.76 -26.47)"/><path class="cls-5" d="M137.89,148.38A43,43,0,0,0,143,139.1c2,8.08,3.62,16.46,3.61,24.79" transform="translate(-67.76 -26.47)"/><path class="cls-5" d="M146.1,153.42c2.8-6.38,5.61-12.76,8.75-19,.84,2.7,1.67,5.41,2.5,8.11" transform="translate(-67.76 -26.47)"/><path class="cls-5" d="M156.25,166.87l18.55-.25" transform="translate(-67.76 -26.47)"/><path class="cls-5" d="M147,175.64l2.49,61.91" transform="translate(-67.76 -26.47)"/><path class="cls-10" d="M160.13,130.69c-6.41-.51-20.43-7-25.66-24.33-4.35-14.39-7.82-31.19,11.14-38.14s27.59,8.12,33,22.14c3.67,9.5,6,23.83-1.44,33.44C172,130.4,164.71,131,160.13,130.69Z" transform="translate(-67.76 -26.47)"/><path class="cls-5" d="M181.83,103.31c1.71,17.23-5.52,22.9-11.15,25.57s-12.81,2-18.4-.62" transform="translate(-67.76 -26.47)"/><path class="cls-5" d="M167,90.49l4,12.05" transform="translate(-67.76 -26.47)"/><path class="cls-12" d="M175.64,94.79c-.32-.9-.12-1.8.46-2s1.32.35,1.64,1.25.13,1.81-.45,2S176,95.7,175.64,94.79Z" transform="translate(-67.76 -26.47)"/><path class="cls-12" d="M157.45,101c-.32-.9-.12-1.81.46-2s1.32.36,1.64,1.26.13,1.8-.45,2S157.78,101.86,157.45,101Z" transform="translate(-67.76 -26.47)"/><path class="cls-5" d="M177.05,85.75a4.65,4.65,0,0,0-6.25.91" transform="translate(-67.76 -26.47)"/><path class="cls-5" d="M158.4,90.45a5.29,5.29,0,0,0-7,2.46" transform="translate(-67.76 -26.47)"/><path d="M166.19,107.16c1.4,2.49,3.21,4.07,4.52,4s2-2,1.85-4.57Z" transform="translate(-67.76 -26.47)"/><path class="cls-14" d="M169.9,109a2.82,2.82,0,0,0-2.38-.47l-.4.11c1.21,1.64,2.56,2.61,3.59,2.51l.18,0A3.23,3.23,0,0,0,169.9,109Z" transform="translate(-67.76 -26.47)"/><path class="cls-12" d="M168.72,260.56c-16.5,5.79-34.53,4.64-52,3.27-9.25-.73-19.49-2-25.54-9-3.77-4.37-5.2-10.24-6.13-15.93-2.69-16.5-2.09-33.37-.43-50,1-10.11,2.43-20.29,6-29.8s9.59-16.12,18-21.33c4.66,32.84,7.7,63.65,7.88,96.87a476.88,476.88,0,0,1,55.64,7.66A18.92,18.92,0,0,0,168.72,260.56Z" transform="translate(-67.76 -26.47)"/><path class="cls-5" d="M112.56,167.68a314.11,314.11,0,0,1,3,66.7c18.34,1,36.85,2.86,55.29,8.08" transform="translate(-67.76 -26.47)"/><path class="cls-5" d="M161.27,242.06A23.25,23.25,0,0,0,160,263.14a47.88,47.88,0,0,0,8.29-2.47" transform="translate(-67.76 -26.47)"/><path class="cls-5" d="M162.63,257.66a2.71,2.71,0,0,0-.42.6.8.8,0,0,0,0,.71.86.86,0,0,0,.58.38,1.28,1.28,0,0,0,1.31-.47,1.06,1.06,0,0,0-.09-1.35A1,1,0,0,0,162.63,257.66Z" transform="translate(-67.76 -26.47)"/><path class="cls-5" d="M123.33,263.88c-5.69-.14-11.44-.28-17-1.64s-11.4-2.91-15.14-7.41c-4.36-5.24-5.58-13.47-6.58-20.33-2.48-17,.77-51.22.77-52.37" transform="translate(-67.76 -26.47)"/><path class="cls-10" d="M137.26,104a16.21,16.21,0,0,0-6.63-2.75c-2.39-.25-5.08.79-6,3a5.65,5.65,0,0,0,.12,4.29,7.81,7.81,0,0,0,6.57,4.83,7.24,7.24,0,0,0,6.91-4.1C138,107.87,137.77,106.46,137.26,104Z" transform="translate(-67.76 -26.47)"/><path class="cls-5" d="M128.76,105.35l4.28,3.71" transform="translate(-67.76 -26.47)"/><path class="cls-5" d="M128.85,109.59a38.66,38.66,0,0,1,3.8-4.68" transform="translate(-67.76 -26.47)"/><path class="cls-5" d="M124.45,105.54a8,8,0,0,0,14.93,3.54" transform="translate(-67.76 -26.47)"/><path class="cls-13" d="M137.08,106.32c.64.5,1.46,1,2.19.68,1-.46.84-1.9.51-2.94a161.36,161.36,0,0,0-7.42-19.18l31.74-13.8a5.78,5.78,0,0,0,2-1.2,1.94,1.94,0,0,0,.43-2.14,2.7,2.7,0,0,0-1.66-1.1c-6.68-2.21-14.07-1.26-20.48,1.63-7.32,3.3-14.45,7.19-13.18,16-.65-.08-3.21,3.94-2.72,6.54C129.33,95.4,129.58,100.53,137.08,106.32Z" transform="translate(-67.76 -26.47)"/></g><path class="cls-15" d="M257.56,149.7a241.84,241.84,0,0,1,35.5,14l-37.15,7.95C256.41,165.41,256.91,159.14,257.56,149.7Z" transform="translate(-67.76 -26.47)"/><path class="cls-5" d="M292.28,164.46c-9.69,1.91-19.39,3.82-29.58,5.63-.89,18.49-1.79,37-3.12,56.7-49.77-2.52-96.62-1.93-134.73-.21" transform="translate(-67.76 -26.47)"/><path class="cls-5" d="M170.46,59a476.56,476.56,0,0,0-93.71,2.14,383.65,383.65,0,0,0-5.42,72.42" transform="translate(-67.76 -26.47)"/><path class="cls-16" d="M328,319.25l.24-.71c10.93-31.47,21.71-59.57,33-85.91l1-2.3,4.61,2-1,2.3c-11.12,26-21.79,53.8-32.59,84.87l24.54,96.22h-5.39Z" transform="translate(-67.76 -26.47)"/><path class="cls-12" d="M329.25,310.64a7.68,7.68,0,0,1,1.68-2.65l1.33,1.28a4.11,4.11,0,0,1,1.81-1.11,18.44,18.44,0,0,1-.9-1.77,7.6,7.6,0,0,1,3-.74c0,.71,0,1.41,0,2.12a4.21,4.21,0,0,1,2.06.49,19.72,19.72,0,0,1,.73-2.17,7.63,7.63,0,0,1,2.75,1.7l-1.67,1.73a4.23,4.23,0,0,1,1.11,1.81,22.68,22.68,0,0,1,2.27-1.12,7.62,7.62,0,0,1,.67,3.24l-2.55.05a4.39,4.39,0,0,1-.49,2.07,19.48,19.48,0,0,1,2.41.82,7.64,7.64,0,0,1-2,2.76,12.57,12.57,0,0,0-1.75-1.38,6.22,6.22,0,0,0-1.31.72l.69,2.07a7.63,7.63,0,0,1-3.37.45,10.5,10.5,0,0,0-.24-1.92,5.45,5.45,0,0,0-1.44-.41l-.84,1.67a7.71,7.71,0,0,1-2.65-2,10.59,10.59,0,0,0,1-1.31,6.06,6.06,0,0,0-.72-1.32l-1.56.52a7.58,7.58,0,0,1-.56-3.22,10.3,10.3,0,0,0,1.52-.22,6.06,6.06,0,0,0,.41-1.44Z" transform="translate(-67.76 -26.47)"/><path class="cls-5" d="M337.74,311.61a2.71,2.71,0,0,1,.73,2.37,2.07,2.07,0,0,1-1.76,1.63,2.11,2.11,0,0,1-1.87-1,2.33,2.33,0,0,1,0-2.65A2,2,0,0,1,337.74,311.61Z" transform="translate(-67.76 -26.47)"/><path class="cls-5" d="M335.16,308.78a5.3,5.3,0,0,0-2.48,7.92" transform="translate(-67.76 -26.47)"/><path class="cls-5" d="M327.66,320c8.84,32.83,15.87,62.9,24.71,95.73" transform="translate(-67.76 -26.47)"/><path class="cls-5" d="M366.43,233.27Q355.27,258,345.9,283.52" transform="translate(-67.76 -26.47)"/><path class="cls-4" d="M375.39,289c-7.16-13.82-14.4-27.88-17.31-43.16a30.19,30.19,0,0,1-.42-11.55c.76-3.8,2.88-7.47,6.27-9.35,5.21-2.87,11.77-.85,16.93,2.13,8.17,4.72,14.9,11.65,20.47,19.29s10,16,14.77,24.52C402.9,276.83,389.71,282.76,375.39,289Z" transform="translate(-67.76 -26.47)"/><path class="cls-12" d="M365.1,230.65q-3.71-6.63-7.4-13.26a15.58,15.58,0,0,1,4.7-2.83,164.36,164.36,0,0,1,7.89,15.22A23.39,23.39,0,0,1,365.1,230.65Z" transform="translate(-67.76 -26.47)"/><path class="cls-5" d="M371.88,224.16A27.54,27.54,0,0,1,385.49,230,63.51,63.51,0,0,1,396,240.58a163.26,163.26,0,0,1,19.81,30.18l-14,6.62" transform="translate(-67.76 -26.47)"/><path class="cls-5" d="M362.25,235a49,49,0,0,0,5.28,25.57" transform="translate(-67.76 -26.47)"/><path class="cls-5" d="M368.46,263l3.31,7.08" transform="translate(-67.76 -26.47)"/><rect class="cls-2" x="155.53" width="117.34" height="27.46" rx="11.15"/><circle class="cls-4" cx="236.3" cy="40.39" r="8.53" transform="translate(90.73 240.66) rotate(-80.76)"/><path class="cls-17" d="M231.58,40.33q1.23,2.25,2.44,4.52a47.26,47.26,0,0,1,9.56-12.09" transform="translate(-67.76 -26.47)"/><path class="cls-18" d="M249.92,35.93h0Z" transform="translate(-67.76 -26.47)"/><path class="cls-18" d="M249.92,40.39h0Z" transform="translate(-67.76 -26.47)"/><path class="cls-18" d="M249.92,44.85h0Z" transform="translate(-67.76 -26.47)"/><path class="cls-5" d="M340.47,37.4c.08,3.14.17,6.27.26,9.49a7.08,7.08,0,0,1-7.1,7.29L249.76,54" transform="translate(-67.76 -26.47)"/><path class="cls-5" d="M376.33,404.82a33.85,33.85,0,0,1,16.89-5.75" transform="translate(-67.76 -26.47)"/><path class="cls-5" d="M377.28,406.77a30.92,30.92,0,0,1,16.65-2.9" transform="translate(-67.76 -26.47)"/><path class="cls-5" d="M378.08,409a22.78,22.78,0,0,1,11.32-1.39" transform="translate(-67.76 -26.47)"/><path class="cls-19" d="M285.75,410.59c-.43-.16-5.86-3.7-6.15-8.41-.23-3.72,1.43-7.31,3.5-10.4s4.62-5.85,6.68-8.95a30.27,30.27,0,0,0,5.27-17,24,24,0,0,0-6.6-16.38A19.85,19.85,0,0,0,272,343.55c-1.21.17-2.59.62-3,1.77a2.44,2.44,0,0,0,.89,2.5,7.35,7.35,0,0,0,2.51,1.19,44.85,44.85,0,0,1,9.13,3.79,15.94,15.94,0,0,1,6.68,7.09c2.09,4.77.85,10.42-1.64,15s-6.12,8.41-9.19,12.62-5.66,9.1-5.58,14.3a15.17,15.17,0,0,0,10,13.83C282.75,413.83,285.35,410.36,285.75,410.59Z" transform="translate(-67.76 -26.47)"/><path class="cls-5" d="M291.9,354.16a26.13,26.13,0,0,1,1.8,20.73c-2.51,7.47-9.05,12.39-12.39,19.38-1.74,3.63-2.47,8-.72,11.82" transform="translate(-67.76 -26.47)"/><path class="cls-19" d="M336.3,404.28c-4.58,1.71-9.71,1-14.4-.39s-9.17-3.46-13.94-4.52c-8-1.77-16.84-.66-23.74,3.8C271.74,411.23,269.63,420,269,428.89c-.61,8.2,1.7,17.41,7.4,23.32l.69,0L309.25,454a15.27,15.27,0,0,0,5.23-.33,5.11,5.11,0,0,0,3.62-3.48c.7,3.52,3.87,6.26,7.32,7.43s7.21,1.08,10.86,1l15-.44a18.54,18.54,0,0,0,4.82-.57,6.23,6.23,0,0,0,3.79-2.85c3.24.17,6.32,0,9-1.31s4.77-4.25,4.21-7.17-3.41-4.74-6.19-5.71c15.44-22.15,11.72-39.3,5.66-46.37-4.82-5.62-13.69-6.58-19.29-5.69s-11.11,3.66-14.28,8.35A24.76,24.76,0,0,0,336.3,404.28Z" transform="translate(-67.76 -26.47)"/><path class="cls-19" d="M364.08,390.68a42.43,42.43,0,0,1,13.07-8.39,96.93,96.93,0,0,1-4.06,13.6C370,394.2,366.91,392.51,364.08,390.68Z" transform="translate(-67.76 -26.47)"/><path class="cls-19" d="M341.14,395.46a42.6,42.6,0,0,1-.72-15.51,95.59,95.59,0,0,1,9.74,10.33C347.15,392.1,344.14,393.93,341.14,395.46Z" transform="translate(-67.76 -26.47)"/><path class="cls-5" d="M323.48,438c-3.26,3.55-6.27,8.82-4.39,13.72a12.56,12.56,0,0,0,11,6.91" transform="translate(-67.76 -26.47)"/><path class="cls-5" d="M361.66,444.28a47.53,47.53,0,0,0-10.07,3.18" transform="translate(-67.76 -26.47)"/><path class="cls-5" d="M340.29,380.24a36.49,36.49,0,0,0,.48,14.07,24.11,24.11,0,0,0-5.51,17.82" transform="translate(-67.76 -26.47)"/><path class="cls-5" d="M342.26,386.34a9.23,9.23,0,0,0,1.3,5.5" transform="translate(-67.76 -26.47)"/><path class="cls-5" d="M366,401.47a4.89,4.89,0,0,1,1.25-1.72.53.53,0,0,1,.24-.11.21.21,0,0,1,.23.09.35.35,0,0,1-.06.32A4.76,4.76,0,0,1,366,401.47Z" transform="translate(-67.76 -26.47)"/><path class="cls-5" d="M366,401.52a4.14,4.14,0,0,0-2-1.75.34.34,0,0,0-.31,0c-.11.06-.12.22-.09.35a1.65,1.65,0,0,0,1,1A9.75,9.75,0,0,0,366,401.52Z" transform="translate(-67.76 -26.47)"/><path class="cls-5" d="M366,401.55c0,1.14,0,2.28,0,3.42" transform="translate(-67.76 -26.47)"/><path class="cls-5" d="M293.88,414.2a30.39,30.39,0,0,1,7.56-.19,12.27,12.27,0,0,1,6.93,3.13c2.76,2.65,4.05,6.94,3.86,11a24.25,24.25,0,0,1-3.78,11.37,58.2,58.2,0,0,1-7.3,9.11c4.56-.74,9.22-1.48,13.76-.56a4.87,4.87,0,0,1,1.9.71,2.5,2.5,0,0,1,1.07,1.84" transform="translate(-67.76 -26.47)"/><path class="cls-5" d="M350.85,404.35A33.85,33.85,0,0,0,334,398.6" transform="translate(-67.76 -26.47)"/><path class="cls-5" d="M349.9,406.3a30.92,30.92,0,0,0-16.65-2.9" transform="translate(-67.76 -26.47)"/><path class="cls-5" d="M349.1,408.51a22.78,22.78,0,0,0-11.32-1.39" transform="translate(-67.76 -26.47)"/><path class="cls-15" d="M374,401c0-.7.42-1.27.94-1.27s.94.57.94,1.27-.42,1.27-.94,1.27S374,401.73,374,401Z" transform="translate(-67.76 -26.47)"/><path class="cls-15" d="M350.78,401c0-.7.42-1.27.94-1.27s.94.57.94,1.27-.42,1.27-.94,1.27S350.78,401.73,350.78,401Z" transform="translate(-67.76 -26.47)"/><path class="cls-5" d="M339.91,439c-1.23,2.56-2.55,5.08-3.9,7.76a67.32,67.32,0,0,1,11.09,0,23.17,23.17,0,0,1,10.43,3.48,6.48,6.48,0,0,1,2.48,2.61,2.93,2.93,0,0,1-.57,3.36" transform="translate(-67.76 -26.47)"/><path class="cls-5" d="M354.64,454.4a3.53,3.53,0,0,1,2.69,0,3.72,3.72,0,0,1,2,2.21,14,14,0,0,1-7.41,1.35" transform="translate(-67.76 -26.47)"/><path class="cls-19" d="M522.08,458.81c.06,1.26.12,2.51.17,3.76a38.58,38.58,0,0,0,13,.15c0-1.23.07-2.47.1-3.26A102.2,102.2,0,0,1,522.08,458.81Z" transform="translate(-67.76 -26.47)"/><path class="cls-19" d="M468.21,457.46c.06,1.64.12,3.28.17,4.92a29.59,29.59,0,0,0,13,.19c0-1.61.07-3.23.1-4.27A79.28,79.28,0,0,1,468.21,457.46Z" transform="translate(-67.76 -26.47)"/><path class="cls-7" d="M547.12,459.46l-92.06-.24A29.09,29.09,0,0,0,455,454a128.93,128.93,0,0,1,19.22-21.3c29.26.79,59.24,1.48,89.22,2.17.35,1,.74,2.49,1.26,4.43C559,446,553.3,452.77,547.12,459.46Z" transform="translate(-67.76 -26.47)"/><path class="cls-5" d="M561.27,437.5c-5.39,6.34-10.79,12.67-16.51,19-28.54,0-58.27,0-86.84-.61" transform="translate(-67.76 -26.47)"/><path class="cls-5" d="M526.36,436.79a132,132,0,0,1-5.54,12.08,20.24,20.24,0,0,1-4.4.3c0-1.74.34-3.44.5-5.59-1.07-.08-2.13-.17-3-.26a40.59,40.59,0,0,1,.94-6.34A79.74,79.74,0,0,1,526.36,436.79Z" transform="translate(-67.76 -26.47)"/><path class="cls-5" d="M525.14,449.8c5.34.34,14.12.48,19.46.82" transform="translate(-67.76 -26.47)"/><path class="cls-5" d="M527.61,445.32c5.64.75,13.94.48,19.62.81" transform="translate(-67.76 -26.47)"/><path class="cls-5" d="M479.47,438.68c9.83.39,13.82.58,23.65,1a16.94,16.94,0,0,1,.73-3.76,214.06,214.06,0,0,1-23-1A29.29,29.29,0,0,0,479.47,438.68Z" transform="translate(-67.76 -26.47)"/><path class="cls-5" d="M512.23,436.82l-6.09-.25" transform="translate(-67.76 -26.47)"/><path class="cls-5" d="M511.75,440.52l-5.74-.45" transform="translate(-67.76 -26.47)"/><path class="cls-5" d="M475.52,434.81l2.9.18" transform="translate(-67.76 -26.47)"/><path class="cls-5" d="M470.47,441.72l40.28,2.2" transform="translate(-67.76 -26.47)"/><path class="cls-5" d="M467.61,445.48q22-.33,44.05,1.35" transform="translate(-67.76 -26.47)"/><path class="cls-5" d="M464.05,450q23.34-.31,46.66,0" transform="translate(-67.76 -26.47)"/><path class="cls-5" d="M462.19,453q40.05-1.31,80.08,1.4" transform="translate(-67.76 -26.47)"/><path class="cls-5" d="M536.15,439.56s3.67.31,4.09.36c.22-.5,1.37-3.19,1.37-3.19l-4.84-.16Z" transform="translate(-67.76 -26.47)"/><path class="cls-5" d="M543.4,439.81l4.1.36,1.36-3.19-4.83-.16Z" transform="translate(-67.76 -26.47)"/><path class="cls-5" d="M534.69,444.23l4.1.36c.22-.5,1.36-3.19,1.36-3.19l-4.83-.16Z" transform="translate(-67.76 -26.47)"/><path class="cls-5" d="M529.65,439.28s3.29.32,3.67.37l1.22-3.19-4.33-.16Z" transform="translate(-67.76 -26.47)"/><g id="OBJECTS"><line class="cls-20" x1="656.31" y1="403.25" x2="342.54" y2="403.26"/><path class="cls-21" d="M544.67,367.28s-7.63-27.94-23.9-37.7c-3.26-2-6.73-3.94-10.53-3.88a2,2,0,0,0-1.77.71c-.45.76.16,1.7.75,2.36,2.72,3.13,5.44,6.26,8.39,9.45a4.23,4.23,0,0,0-3.45.1,6,6,0,0,1-5.86,3.91,8.51,8.51,0,0,0-2,3.49,9.12,9.12,0,0,0-.53,4.7,4.31,4.31,0,0,0,3,3.41,5.35,5.35,0,0,0,4.19-1.15A16.28,16.28,0,0,0,523.3,363c2.33,4.4,4.65,8.81,7,13.82C531.26,375,544.67,367.28,544.67,367.28Z" transform="translate(-67.76 -26.47)"/><path class="cls-20" d="M509,325.9a1.68,1.68,0,0,0-.39,1.82,5,5,0,0,0,1.1,1.64l12,13.61" transform="translate(-67.76 -26.47)"/><path class="cls-20" d="M517,338c-4.44-.44-5.67,4.18-5.37,6.32a7,7,0,0,0,3.59,5.11" transform="translate(-67.76 -26.47)"/><path class="cls-20" d="M512.38,340.53a6.72,6.72,0,0,0-3.58,8.61,4.29,4.29,0,0,0,3.61,2.52" transform="translate(-67.76 -26.47)"/><path class="cls-20" d="M524,344.06a27.74,27.74,0,0,0-9.13,5.92c-.54.54-1.11,1.28-.83,2s1.15.86,1.88.9a25.81,25.81,0,0,0,12.39-2.37" transform="translate(-67.76 -26.47)"/><path class="cls-20" d="M522.66,352.39a4.61,4.61,0,0,0-1.33,4.88" transform="translate(-67.76 -26.47)"/><path class="cls-20" d="M512.41,351.66c1.13,5.66,5.82,9.63,10.62,11.08a126.86,126.86,0,0,0,6.9,12.72" transform="translate(-67.76 -26.47)"/><path class="cls-22" d="M598,375.5q-6.13,19.59-12.26,39.18c-1.63,4.42-3.25,9.25-6.24,13.25s-7.65,7.09-12.64,6.9a15.68,15.68,0,0,1-9.9-4.64,46.94,46.94,0,0,1-6.76-8.87c-9.52-14.92-25.21-45.83-25.76-47.62,1.2-.62,11.09-7.43,18.43-11.9,2.07,2.55,16.68,26.1,19,28.14.24-19.76,3.51-42.37,14.14-58.74C583.22,346.24,590,361.25,598,375.5Z" transform="translate(-67.76 -26.47)"/><path class="cls-20" d="M569.91,344.6a172.92,172.92,0,0,0-8.33,64.82" transform="translate(-67.76 -26.47)"/><path class="cls-21" d="M612.93,375.14c19.15-.79,34-27.81,38.07-46.54-37-22.68-69.07-3.84-75,3.37C582.22,349.4,595.09,375.87,612.93,375.14Z" transform="translate(-67.76 -26.47)"/><path class="cls-11" d="M684.59,429.72c7.9-29.78-13.29-92.8-37.69-104.31-15.49,11.77-65.78,15.78-70.86,5.79-12.18,49.8,44.49,98.52,44.49,98.52Z" transform="translate(-67.76 -26.47)"/><path class="cls-7" d="M590.63,324.06c4.8,10.13,20.92,38.06,20.92,38.06L588,371.49s-14.17-17.49-22.4-32.87c.2-1.76.4-3.52.64-5.12C574.24,330.43,582.26,327.36,590.63,324.06Z" transform="translate(-67.76 -26.47)"/><path class="cls-20" d="M581.35,335.78a.83.83,0,0,1-.91.23,1.11,1.11,0,0,1-.74-1.08,1,1,0,0,1,.91-.9C581.82,334.06,581.58,335.47,581.35,335.78Z" transform="translate(-67.76 -26.47)"/><path class="cls-20" d="M582.91,338.73a.72.72,0,0,1-.66.45.92.92,0,0,1-.93-.55.75.75,0,0,1,.44-.94C582.74,337.34,583,338.43,582.91,338.73Z" transform="translate(-67.76 -26.47)"/><path class="cls-20" d="M588.29,368.4a291.66,291.66,0,0,1-20.69-31.16l16.66-7.59" transform="translate(-67.76 -26.47)"/><path class="cls-21" d="M630.48,377c-.28-1.09-8.69-13.38-9.39-13.45.59-4.24-1.82-11.71-5.52-16.23a17.63,17.63,0,0,0-15.82-6.17,21,21,0,0,1,1.82,4.61l-19.79-3.92a23.47,23.47,0,0,0-6.23-.67,2.33,2.33,0,0,0-2.09,1,1.72,1.72,0,0,0,.58,1.91c.54.47,1.24.68,2.22,1.48-.23,1.71,1,3.23,2.34,4.35a30.13,30.13,0,0,0,9.8,5.51l-10-3.21c-.6-.2-1.51-.23-1.63.39a1.1,1.1,0,0,0,.34.87c5.15,6.51,15.65,12.33,23.53,14.89-.24,1.05,8.2,12.68,8.29,13.94A61.64,61.64,0,0,0,630.48,377Z" transform="translate(-67.76 -26.47)"/><path class="cls-20" d="M573.42,343.11a51.61,51.61,0,0,0,21.76,10.63" transform="translate(-67.76 -26.47)"/><path class="cls-20" d="M576.08,345.45c-.06,2.25,1.8,4.05,3.63,5.38a39.41,39.41,0,0,0,14.55,6.54" transform="translate(-67.76 -26.47)"/><path class="cls-20" d="M584.84,342.57a75.75,75.75,0,0,1,23.5,6.22" transform="translate(-67.76 -26.47)"/><path class="cls-11" d="M668.68,417.34c2.62-15.19,1.93-30.78.4-46.12-.93-9.33-1.52-19-5.57-27.48-5-10.36-23.89-4.42-24.86,11.25-1.24,19.93.71,34-.09,52.77-2.69-13-4.63-20.67-7.27-33.11-8.46,1.6-16.93,3.2-25.12,5.16a161.15,161.15,0,0,0,4.62,37c1.67,6.81,3.85,13.63,7.86,19.38s10.13,10.35,17.09,11.15c5.53.64,11.15-1.17,15.8-4.22S666.34,430.92,668.68,417.34Z" transform="translate(-67.76 -26.47)"/><path class="cls-20" d="M630.74,374.79q5.68,22.8,11.36,45.6" transform="translate(-67.76 -26.47)"/><path class="cls-20" d="M636.67,398.2q-.24-23.47-.5-47" transform="translate(-67.76 -26.47)"/><path class="cls-20" d="M672.75,370.34c.12,1.89-2.94,26-4.34,38.24s-4.2,23-13.33,31.19a30.42,30.42,0,0,1-12.58,7c-5.42,1.4-20.09,2.37-29-22.16a131.35,131.35,0,0,1-7.82-44.53q7.47-1.47,14.79-3.59" transform="translate(-67.76 -26.47)"/><path class="cls-20" d="M627.33,377.59a56,56,0,0,1-14.5,11.22" transform="translate(-67.76 -26.47)"/><path class="cls-20" d="M627.67,380.7a88.61,88.61,0,0,1-12.52,18.9" transform="translate(-67.76 -26.47)"/><path class="cls-12" d="M653.14,272.06a33.41,33.41,0,0,0,1.48-14.61,25.26,25.26,0,0,0-5.9-13.34A20.35,20.35,0,0,0,636,237.3a17,17,0,0,0-13.6,4.51c-3.53,3.45-5.24,8.75-4,12.67a51.07,51.07,0,0,0,16.35,25.73c2.1,4.35,4.34,8.86,8.17,11.8a4.52,4.52,0,0,0,1.64.89,2,2,0,0,0,1.77-.35,2.74,2.74,0,0,0,.59-2.29,20.29,20.29,0,0,0-1.87-6.74c2.88,3.5,5.94,7.13,10.13,8.86a5,5,0,0,0,4.42.13,3.76,3.76,0,0,0,1.68-3,6.85,6.85,0,0,0-.79-3.44c-1.57-3.26-4.48-5.65-7.28-8.24a7,7,0,0,0,5.19,1.17,2.75,2.75,0,0,0,2.21-1.42,2.19,2.19,0,0,0-.43-2.1,5,5,0,0,0-1.8-1.29C656.74,273.41,655,272.9,653.14,272.06Z" transform="translate(-67.76 -26.47)"/><path class="cls-12" d="M612.15,310.58a33.5,33.5,0,0,0,18.15-10.09c10.23-11.23,10.71-26,9.53-32.23a18.52,18.52,0,0,0-28.19-11.84c-5.49,6-7.57,14.41-8.49,22.51a51.37,51.37,0,0,0,.47,17.32C604.91,301.9,607.78,307.34,612.15,310.58Z" transform="translate(-67.76 -26.47)"/><path class="cls-5" d="M621.86,253.44a16.54,16.54,0,0,1,14,6.37c8.35,10.46,6,35.3-12.14,45.73" transform="translate(-67.76 -26.47)"/><path class="cls-5" d="M619.39,252a11,11,0,0,1,1.87-8.06,17.65,17.65,0,0,1,6.36-5.46,19.78,19.78,0,0,1,12-2.42,18.66,18.66,0,0,1,12.68,8.46,25.87,25.87,0,0,1,3.83,15.06,41.6,41.6,0,0,1-3.86,15.21" transform="translate(-67.76 -26.47)"/><path class="cls-5" d="M637.43,242.87c5.05.61,9.15,4.79,10.86,9.58s1.43,10.06.55,15.07" transform="translate(-67.76 -26.47)"/><path class="cls-5" d="M630.48,246.21a10.37,10.37,0,0,1,13,6.18" transform="translate(-67.76 -26.47)"/><path class="cls-21" d="M604.78,298.89l-.39,22.17a16.59,16.59,0,0,0,15.86-.06c-.79-7.5-1.2-15.08-1.35-22.33A18.55,18.55,0,0,0,604.78,298.89Z" transform="translate(-67.76 -26.47)"/><path class="cls-21" d="M602.24,315c5.9-.54,18.74-6.69,23.35-22.76,3.82-13.32,6.81-28.86-10.77-35s-25.33,7.84-30.14,20.84c-3.27,8.81-5.28,22.06,1.76,30.82C591.27,314.92,598,315.42,602.24,315Z" transform="translate(-67.76 -26.47)"/><path class="cls-5" d="M581.88,290.06c-1.37,15.92,5.37,21.05,10.61,23.44s11.83,1.68,17-.81" transform="translate(-67.76 -26.47)"/><path class="cls-5" d="M595.43,278.05l-3.56,11.16" transform="translate(-67.76 -26.47)"/><path class="cls-5" d="M634.82,291.38a7.37,7.37,0,0,1-13.73,3.46" transform="translate(-67.76 -26.47)"/><path class="cls-12" d="M587.61,281.54c.3-.83.12-1.67-.42-1.86s-1.21.32-1.51,1.16-.12,1.66.42,1.86S587.31,282.37,587.61,281.54Z" transform="translate(-67.76 -26.47)"/><path class="cls-12" d="M604.91,285.3c.3-.83.11-1.66-.43-1.86s-1.21.33-1.51,1.16-.11,1.67.42,1.86S604.6,286.14,604.91,285.3Z" transform="translate(-67.76 -26.47)"/><path class="cls-5" d="M586.32,273.2a4.28,4.28,0,0,1,5.76.84" transform="translate(-67.76 -26.47)"/><path class="cls-5" d="M603.52,277.53A4.89,4.89,0,0,1,610,279.8" transform="translate(-67.76 -26.47)"/><path d="M596.33,292.94c-1.29,2.3-3,3.76-4.16,3.64s-1.89-1.8-1.72-4.21Z" transform="translate(-67.76 -26.47)"/><path class="cls-14" d="M592.91,294.6a2.61,2.61,0,0,1,2.19-.43l.37.1c-1.11,1.51-2.35,2.41-3.3,2.31l-.18,0A3,3,0,0,1,592.91,294.6Z" transform="translate(-67.76 -26.47)"/><path class="cls-12" d="M611.64,256.42a37.25,37.25,0,0,0-2.39-5,7.5,7.5,0,0,0-4.59-3.41c-2.15-.44-4.34.42-6.24,1.5a23,23,0,0,0-10.31,11.81c-.68,1.83-1,4,.16,5.59a4.37,4.37,0,0,0,2.87,1.55,10.6,10.6,0,0,0,3.32-.15,39.08,39.08,0,0,0,12-4.27c-.5,2.29-.95,4.79.08,6.9a2.66,2.66,0,0,0,1.63,1.52,3.05,3.05,0,0,0,2.33-.71,12.63,12.63,0,0,0,4.64-6.64,32,32,0,0,0,2.93,20c1.11,2.17,2.68,4.38,5,5.25a18,18,0,0,0-2.46-34.15C617.51,255.52,611.64,256.42,611.64,256.42Z" transform="translate(-67.76 -26.47)"/><path class="cls-5" d="M600.74,251.26A14,14,0,0,0,592,262.05" transform="translate(-67.76 -26.47)"/><path class="cls-5" d="M599.13,254.78a11.73,11.73,0,0,0-2.36,11.43" transform="translate(-67.76 -26.47)"/><path class="cls-5" d="M614.94,261.42A12.9,12.9,0,0,1,619.07,273" transform="translate(-67.76 -26.47)"/><path class="cls-5" d="M615.94,258.83a11,11,0,0,1,6.66,9.61" transform="translate(-67.76 -26.47)"/><path class="cls-21" d="M623,290.13a15.1,15.1,0,0,1,6.08-2.63c2.21-.25,4.7.67,5.6,2.7a5.25,5.25,0,0,1,0,3.95,7.21,7.21,0,0,1-6,4.54,6.66,6.66,0,0,1-6.42-3.69C622.36,293.7,622.54,292.4,623,290.13Z" transform="translate(-67.76 -26.47)"/><path class="cls-5" d="M630.84,291.27l-3.9,3.47" transform="translate(-67.76 -26.47)"/><path class="cls-5" d="M630.81,295.18a35.66,35.66,0,0,0-3.56-4.27" transform="translate(-67.76 -26.47)"/><path class="cls-12" d="M598.51,450.59a303.89,303.89,0,0,0,5.1-30.44c-1.74-.29-3.48-.59-5.45-1L592.4,449A24,24,0,0,1,598.51,450.59Z" transform="translate(-67.76 -26.47)"/><path class="cls-11" d="M602.71,431.65q.81-5.4,1.6-10.81a2.36,2.36,0,0,0-.13-1.62,2.43,2.43,0,0,0-1.86-.85l-4.73-.65c-1.16,4.24-2.13,8.54-2.93,12.87A36.53,36.53,0,0,1,602.71,431.65Z" transform="translate(-67.76 -26.47)"/><path class="cls-3" d="M604.38,421.8c.56-.6,1.67-.2,2,.54a3.77,3.77,0,0,1,.07,2.42c-.74,4-1.49,8-2.39,12" transform="translate(-67.76 -26.47)"/><path class="cls-3" d="M604.28,419.16a76.79,76.79,0,0,1-2,12.43,31.56,31.56,0,0,0-6.79-.62" transform="translate(-67.76 -26.47)"/><path class="cls-14" d="M589.33,452.26c.95-11.73,1.48-23.49,1.6-35.4-1.47.15-2.93.25-4.79.37l-.6,36.61A7.63,7.63,0,0,0,589.33,452.26Z" transform="translate(-67.76 -26.47)"/><path class="cls-23" d="M580.69,450.94q-1.35-16.54-3.92-32.95a28.37,28.37,0,0,0,2.23-3.37,19.56,19.56,0,0,0,3.51,3.86c.93,9.39,1.39,18.63,1.55,27.42A44.18,44.18,0,0,0,580.69,450.94Z" transform="translate(-67.76 -26.47)"/><path class="cls-3" d="M580.66,420.75q1,12.4,2.05,24.81" transform="translate(-67.76 -26.47)"/><path class="cls-3" d="M580.46,449.8q-.94-14.39-3-28.69" transform="translate(-67.76 -26.47)"/><path class="cls-4" d="M574.24,441.17l5,31.89c7.22.18,13.73.17,20.24.15,2.5-10.54,4.36-20.57,6.09-30.82A175.67,175.67,0,0,0,574.24,441.17Z" transform="translate(-67.76 -26.47)"/><path class="cls-3" d="M600.42,442a233.43,233.43,0,0,0-26.21-.9q1.69,13.91,4.54,27.63" transform="translate(-67.76 -26.47)"/><path class="cls-19" d="M461.76,370.33c4.21,19.26,8.43,38.85,12.64,58.1-.76-.05-8.63,0-9.34,0-3.5-19.1-7.42-39-12.5-58.19A20.35,20.35,0,0,0,461.76,370.33Z" transform="translate(-67.76 -26.47)"/><path class="cls-5" d="M455.71,428.5c.93-.2,26-.07,26.66.05" transform="translate(-67.76 -26.47)"/><path class="cls-5" d="M459.08,390.61q2.26,10.41,4.51,20.81" transform="translate(-67.76 -26.47)"/><path class="cls-19" d="M498.54,298.72l-114.88-.15q-1.34,2.49-2.56,5l-1.62,3.32c4.81,19.35,16.52,65.75,18.77,68,26-.77,92.91-2.11,111.42-2.48.12-.27.25-.54.38-.81,1-2.11,2-4.24,2.9-6.38Z" transform="translate(-67.76 -26.47)"/><path class="cls-5" d="M492.72,302.73c.46,1.85,13.11,50.51,17,65.93" transform="translate(-67.76 -26.47)"/><path class="cls-5" d="M387.24,308.38l21.69-.56" transform="translate(-67.76 -26.47)"/><path class="cls-5" d="M387.21,313l22.22-1.12" transform="translate(-67.76 -26.47)"/><path class="cls-5" d="M388.21,317.67l20.86-1" transform="translate(-67.76 -26.47)"/><path class="cls-5" d="M389.69,322l20.51-1.49" transform="translate(-67.76 -26.47)"/><path class="cls-5" d="M391.06,327l19.61-1.66" transform="translate(-67.76 -26.47)"/></g><rect class="cls-2" x="155.47" y="38.67" width="117.34" height="27.46" rx="11.15"/><circle class="cls-4" cx="236.24" cy="79.06" r="8.53" transform="translate(52.51 273.07) rotate(-80.76)"/><path class="cls-17" d="M231.53,79,234,83.52a47.48,47.48,0,0,1,9.56-12.09" transform="translate(-67.76 -26.47)"/><path class="cls-18" d="M249.86,74.6h0Z" transform="translate(-67.76 -26.47)"/><path class="cls-18" d="M249.86,79.06h0Z" transform="translate(-67.76 -26.47)"/><path class="cls-18" d="M249.86,83.52h0Z" transform="translate(-67.76 -26.47)"/><path class="cls-5" d="M340.41,76.08c.09,3.13.17,6.26.27,9.48a7.08,7.08,0,0,1-7.1,7.29l-83.87-.22" transform="translate(-67.76 -26.47)"/><rect class="cls-2" x="155.53" y="73.37" width="117.34" height="27.46" rx="11.15"/><circle class="cls-4" cx="236.3" cy="113.76" r="8.53" transform="translate(18.31 302.25) rotate(-80.76)"/><path class="cls-17" d="M231.58,113.7q1.23,2.25,2.44,4.52a47.26,47.26,0,0,1,9.56-12.09" transform="translate(-67.76 -26.47)"/><path class="cls-18" d="M249.92,109.3h0Z" transform="translate(-67.76 -26.47)"/><path class="cls-18" d="M249.92,113.76h0Z" transform="translate(-67.76 -26.47)"/><path class="cls-18" d="M249.92,118.22h0Z" transform="translate(-67.76 -26.47)"/><path class="cls-5" d="M340.47,110.77c.08,3.14.17,6.27.26,9.49a7.08,7.08,0,0,1-7.1,7.29l-83.87-.23" transform="translate(-67.76 -26.47)"/><path class="cls-24" d="M734.72,418.24A20,20,0,0,0,741,407.66a7.45,7.45,0,0,0,.17-3c-.19-1-.7-2.11-1.67-2.36a3.92,3.92,0,0,0-2.66.64,12.17,12.17,0,0,0,1.27-7.4,4.25,4.25,0,0,0-1.85-3.32,3.45,3.45,0,0,0-3.26.22,10.25,10.25,0,0,0-2.52,2.27,11.32,11.32,0,0,0-1.06-4.23,4.83,4.83,0,0,0-3.34-2.62,3.12,3.12,0,0,0-3.46,2,13.85,13.85,0,0,0-2.23-3.88,5.75,5.75,0,0,0-3.88-2.06A5.52,5.52,0,0,0,712,386.2a10.37,10.37,0,0,0-1.9,4.75,18.82,18.82,0,0,0,1.35,10.68,2.39,2.39,0,0,0-3-.32,3.57,3.57,0,0,0-1.58,2.69,7.55,7.55,0,0,0,.46,3.18c1.54,4.63,5,8.32,8.26,12C722,418.75,728.42,418.51,734.72,418.24Z" transform="translate(-67.76 -26.47)"/><path class="cls-5" d="M708.33,401.4a4.24,4.24,0,0,1,3.82.38,10.76,10.76,0,0,1,5.14,6,2.2,2.2,0,0,1,.16.87.89.89,0,0,1-.43.74c-.45.22-1-.1-1.34-.44-2.12-1.95-3.32-4.68-4.29-7.39a26.72,26.72,0,0,1-1.57-6.15,12.46,12.46,0,0,1,.79-6.26" transform="translate(-67.76 -26.47)"/><path class="cls-5" d="M719.82,385.48a19.83,19.83,0,0,1,4.11,8.47c.5,3.38-.64,5.26-2,5.26-2.79,0-2-6.41.38-9.4,1.15-1.43,2.79-3.39,5.82-1.16,2.45,1.8,2.57,5.16,2.5,7.25-.16,4.75-1.09,6.6-2.39,7.11-1.65.65-1.88-1-1.73-2.28.42-3.55,3.76-6.56,6.81-8.42" transform="translate(-67.76 -26.47)"/><path class="cls-5" d="M738.11,398.18a26.78,26.78,0,0,1-1.07,4.95,9.07,9.07,0,0,1-2.76,4.17,1.89,1.89,0,0,1-.9.46.8.8,0,0,1-.84-.42,1.1,1.1,0,0,1,.18-.92,8.08,8.08,0,0,1,4.24-3.65,3.51,3.51,0,0,1,2.23-.21,2.92,2.92,0,0,1,1.79,1.91,6.1,6.1,0,0,1,.13,2.69c-.57,4.29-3.14,8.07-6.1,11.23" transform="translate(-67.76 -26.47)"/><path class="cls-25" d="M738.81,418.27q-1.63,12.62-3.26,25.21l-18.24.25q-2-12.48-4-25Z" transform="translate(-67.76 -26.47)"/><path class="cls-26" d="M740.11,417.11c-9.2.21-19.46.42-28.91.49.57,2.22,1.07,4.44,1.63,6.77a230.92,230.92,0,0,1,26.43.14C739.48,422.94,740,418.71,740.11,417.11Z" transform="translate(-67.76 -26.47)"/><path class="cls-25" d="M712.71,423.23a33.14,33.14,0,0,0-1.93-5.3c9.43-1,29.33-.82,29.33-.82" transform="translate(-67.76 -26.47)"/><path class="cls-25" d="M717,422l18.83.42" transform="translate(-67.76 -26.47)"/><path class="cls-25" d="M737.35,427.34c-.46,5.24-1.15,10.47-2,15.93l-17.4.4" transform="translate(-67.76 -26.47)"/></svg>